<?xml version="1.0" encoding="utf-8"?>
<!-- Generator: Adobe Illustrator 24.0.2, SVG Export Plug-In . SVG Version: 6.00 Build 0)  -->
<svg version="1.1" id="Capa_1" xmlns="http://www.w3.org/2000/svg" xmlns:xlink="http://www.w3.org/1999/xlink" x="0px" y="0px"
	 viewBox="0 0 713.4 462.7" style="enable-background:new 0 0 713.4 462.7;" xml:space="preserve">
<style type="text/css">
	.st0{fill:#2E2E2E;}
	.st1{fill:#3047B0;}
	.st2{fill:url(#SVGID_1_);}
	.st3{fill:url(#SVGID_2_);}
	.st4{fill-rule:evenodd;clip-rule:evenodd;fill:#FFFFFF;}
	.st5{fill:#FFFFFF;}
</style>
<path class="st0" d="M368.5,356H273V81.6h-86.1v-78h267.8v78h-86.1L368.5,356L368.5,356z"/>
<path class="st0" d="M575.6,3.7c44.4,0,77.6,9.7,99.4,29.1c22.2,19.4,33.3,47,33.3,82.9c0,16.1-2.3,31.6-6.9,46.4
	c-4.6,14.5-12.1,27.6-22.5,39.5c-10.1,11.5-23.7,20.7-40.7,27.6c-17,6.6-37.9,9.9-62.7,9.9h-26.4v117h-94.5V3.7H575.6z M573.6,80.6
	h-24.5v80.9h18.6c12.4,0,23.2-3.1,32.3-9.4c9.1-6.6,13.7-17.9,13.7-34.1c0-11.2-3.3-20.2-9.8-27.1C597.5,84.1,587.3,80.6,573.6,80.6
	z"/>
<path class="st1" d="M327.8,271.5c0,85.6-69.4,155-155,155s-155-69.4-155-155s69.4-155,155-155C258.3,116.4,327.8,185.8,327.8,271.5
	z"/>
<linearGradient id="SVGID_1_" gradientUnits="userSpaceOnUse" x1="17.8" y1="202.277" x2="327.8" y2="202.277" gradientTransform="matrix(1 0 0 1 0 69.2229)">
	<stop  offset="0" style="stop-color:#0087FF"/>
	<stop  offset="1" style="stop-color:#3047B0"/>
</linearGradient>
<path class="st2" d="M327.8,271.5c0,85.6-69.4,155-155,155s-155-69.4-155-155s69.4-155,155-155C258.3,116.4,327.8,185.8,327.8,271.5
	z"/>
<linearGradient id="SVGID_2_" gradientUnits="userSpaceOnUse" x1="175.3452" y1="47.2945" x2="167.3828" y2="532.1403" gradientTransform="matrix(1 0 0 1 0 69.2229)">
	<stop  offset="0" style="stop-color:#780096"/>
	<stop  offset="1" style="stop-color:#FF0082"/>
</linearGradient>
<path class="st3" d="M327.8,271.5c0,85.6-69.4,155-155,155s-155-69.4-155-155s69.4-155,155-155C258.3,116.4,327.8,185.8,327.8,271.5
	z"/>
<path class="st4" d="M172.7,139.3c-79.7,0-144.3,64.6-144.3,144.3S93,427.8,172.7,427.8S317,363.2,317,283.6
	S252.4,139.3,172.7,139.3z M3.6,283.6c0-93.4,75.7-169.1,169.1-169.1s169.1,75.7,169.1,169.1s-75.7,169.1-169.1,169.1
	S3.6,377,3.6,283.6z"/>
<path class="st5" d="M167.7,243.3c7.9,0,13.8,2.2,17.7,6.7c4,4.5,6,11.7,6,21.6v50.3h-16.1V275c0-11.5-3.9-17.2-11.8-17.2
	c-5.6,0-9.7,2-12,6.1c-2.4,4.1-3.6,10-3.6,17.8v40.2h-16.1V275c0-11.5-4-17.2-11.9-17.2c-5.9,0-10,2.3-12.2,6.8
	c-2.2,4.6-3.3,11.1-3.3,19.5v37.7H88.1v-77.2h12.4l2.3,10.1h0.9c2.1-4,5-6.9,8.7-8.7c3.7-1.9,7.5-2.8,11.5-2.8
	c5.2,0,9.6,0.9,13.1,2.8c3.6,1.9,6.3,4.9,8.2,9.1h1.3c2.1-4.2,5.1-7.2,9-9.1C159.4,244.2,163.4,243.3,167.7,243.3z"/>
<path class="st5" d="M201.3,244.7h17.6l13.8,43.6c0.9,2.8,1.7,5.5,2.3,8.3c0.6,2.7,1,5.3,1.3,8h0.5c0.3-2.5,0.9-5.1,1.5-7.8
	c0.7-2.8,1.5-5.6,2.3-8.4l13.3-43.6h17.4l-29.6,87.4c-2.6,7.7-6.3,13.6-10.9,17.7c-4.5,4.2-10.1,6.3-16.8,6.3c-2.1,0-4-0.1-5.6-0.4
	c-1.5-0.2-2.9-0.4-4-0.7v-14.2c0.9,0.2,2.1,0.4,3.3,0.6c1.4,0.2,2.8,0.3,4.2,0.3c3.9,0,7.1-1.3,9.5-4c2.4-2.6,4.2-5.8,5.5-9.7l2-6.3
	L201.3,244.7z"/>
</svg>
