<svg width="65" height="67" viewBox="0 0 65 67" fill="none" xmlns="http://www.w3.org/2000/svg">
<path d="M32.299 4.44571V8.46632C26.9381 9.13643 22.1134 11.1467 18.0928 14.2292C16.3505 12.4869 15.2783 11.4148 15.2783 11.4148C13.9381 10.0746 11.7938 10.0746 10.4536 11.4148C9.1134 12.755 9.1134 14.8993 10.4536 16.2395C10.4536 16.2395 11.5258 17.3117 13.134 18.9199C9.91753 22.9406 7.63917 27.8993 6.83505 33.2601H3.48454C1.60825 33.2601 0 34.7344 0 36.7447C0 38.621 1.47423 40.2292 3.48454 40.2292C3.48454 40.2292 4.69072 40.2292 6.70103 40.2292C7.23711 45.8581 9.38144 50.9509 12.5979 55.2395C11.2577 56.5797 10.5876 57.2498 10.5876 57.2498C9.24742 58.59 9.24742 60.7344 10.5876 62.0746C11.9278 63.4148 14.0722 63.4148 15.4124 62.0746C15.4124 62.0746 16.0825 61.4045 17.2887 60.1983C22.2474 64.3529 28.8144 66.7653 35.7835 66.7653C37.6598 66.7653 39.268 65.2911 39.268 63.2808C39.268 61.2705 37.7938 59.7962 35.7835 59.7962C23.4536 59.7962 13.4021 49.7447 13.4021 37.4148C13.4021 25.0849 23.4536 15.0333 35.7835 15.0333C47.9794 15.0333 57.8969 24.6828 58.1649 36.8787C58.1649 38.755 59.7732 40.2292 61.6495 40.2292C63.5258 40.2292 65 38.621 65 36.7447C65 36.7447 65 36.7447 65 36.6107C64.866 29.9096 62.3196 23.7447 58.433 18.9199L61.1134 16.2395C61.7835 15.5694 62.1856 14.7653 62.1856 13.8272C62.1856 12.889 61.7835 12.0849 61.1134 11.4148C59.7732 10.0746 57.6289 10.0746 56.2887 11.4148L53.6082 14.0952C49.5876 11.0127 44.6289 9.00241 39.4021 8.3323V4.31168C39.4021 2.4354 37.9278 0.827148 35.9175 0.827148C33.9072 0.961169 32.299 2.4354 32.299 4.44571Z" fill="#0087FF"/>
<path d="M43.6905 29.5086C44.3606 30.1787 45.0307 30.9828 45.4327 31.7869C46.3709 33.5292 48.5152 34.0653 50.1235 33.1271C51.7317 32.189 52.4018 30.0447 51.4637 28.4364C50.7936 27.0962 49.7214 25.89 48.6492 24.6838C41.6802 17.7148 30.4224 17.7148 23.4534 24.6838C16.4843 31.6529 16.4843 42.9106 23.4534 49.8797C30.4224 56.8488 41.6802 56.8488 48.6492 49.8797C49.5874 48.9416 50.3915 47.8694 51.0616 46.7972C52.1338 45.189 51.5977 43.0447 49.9894 42.1065C48.3812 41.0343 46.2369 41.5704 45.2987 43.1787C44.8967 43.8488 44.3606 44.5189 43.8245 45.055C39.5358 49.3436 32.7008 49.3436 28.4121 45.055C24.1235 40.7663 24.1235 33.9313 28.4121 29.6426C32.5668 25.2199 39.5358 25.2199 43.6905 29.5086Z" fill="#0087FF"/>
</svg>
