<svg width="17" height="24" viewBox="0 0 17 24" fill="none" xmlns="http://www.w3.org/2000/svg">
    <path d="M1.25802 20.75C1.25802 22.125 2.34673 23.25 3.67737 23.25H13.3548C14.6854 23.25 15.7741 22.125 15.7741 20.75V8.25C15.7741 6.875 14.6854 5.75 13.3548 5.75H3.67737C2.34673 5.75 1.25802 6.875 1.25802 8.25V20.75ZM5.09269 10.9625C5.56447 10.475 6.32657 10.475 6.79834 10.9625L8.51608 12.7375L10.2338 10.9625C10.7056 10.475 11.4677 10.475 11.9395 10.9625C12.4112 11.45 12.4112 12.2375 11.9395 12.725L10.2217 14.5L11.9395 16.275C12.4112 16.7625 12.4112 17.55 11.9395 18.0375C11.4677 18.525 10.7056 18.525 10.2338 18.0375L8.51608 16.2625L6.79834 18.0375C6.32657 18.525 5.56447 18.525 5.09269 18.0375C4.62092 17.55 4.62092 16.7625 5.09269 16.275L6.81044 14.5L5.09269 12.725C4.62092 12.25 4.62092 11.45 5.09269 10.9625ZM12.75 2L11.8911 1.1125C11.6733 0.8875 11.3588 0.75 11.0443 0.75H5.98786C5.67334 0.75 5.35882 0.8875 5.14108 1.1125L4.28221 2H1.25802C0.592695 2 0.0483398 2.5625 0.0483398 3.25C0.0483398 3.9375 0.592695 4.5 1.25802 4.5H15.7741C16.4395 4.5 16.9838 3.9375 16.9838 3.25C16.9838 2.5625 16.4395 2 15.7741 2H12.75Z"
          fill="white"></path>
</svg>
