<svg width="94" height="126" viewBox="0 0 94 126" fill="none" xmlns="http://www.w3.org/2000/svg">
<path d="M9.39412 0.00172925L14.0639 0.183406L14.1245 0.210216L14.7327 0.339118L18.5823 2.05115L18.7986 2.23542L18.9855 2.3029L19.6715 2.87041L20.9908 3.85315L21.0081 3.88689L21.0548 3.90334L22.0021 4.68452L22.0263 4.7347L22.0877 4.75892L23.3023 5.90345L23.3672 6.05484L23.4953 6.11799L25.7013 9.023L25.7376 9.132L25.8431 9.241L27.5872 12.415L27.6097 12.5016L27.659 12.5595L28.3113 14.0432L30.0778 17.3271L30.0787 17.328L30.5995 18.2683L30.6124 18.3176L30.6427 18.3522L30.9862 19.0512L31.6203 20.207L31.9689 19.2805L32.0597 19.1646L32.1047 18.9985L32.7285 17.9188L32.9326 17.7147L33.2925 17.3055L33.8418 16.9179L34.0434 16.853L34.2216 16.7068L35.0331 16.3677L35.1317 16.3478L35.1784 16.3132L35.8039 16.1047L36.0375 16.0666L36.0401 16.0649L36.0496 16.0614L36.1067 16.0294L36.1845 16.0165L36.9484 15.7587L38.0134 15.333L38.3231 15.2725L38.4182 15.2188L41.6252 14.6825L41.9504 14.6548L42.0309 14.6565L44.1201 14.7448L44.5224 14.9264L45.2958 15.2188L45.8512 15.7085L45.9074 15.8339L46.1678 16.0692L47.1367 17.4975L47.1947 17.6844L47.3244 17.8418L47.8643 19.1239L47.9568 19.5781L48.0122 19.6845L48.058 20.0885L48.3937 19.848L48.8998 19.6845L49.065 19.5919L49.0633 19.5487L49.0728 19.3462L49.2302 17.6991L49.3038 15.404L49.3323 15.3408L49.4906 14.6375L49.9223 13.7291L49.9621 13.6842L49.9786 13.6219L50.5106 13.0673L50.617 12.9471L50.6291 12.9436L50.6378 12.935L51.0461 12.6806L51.6923 12.4955L51.8896 12.3977L52.6543 12.3303L52.8265 12.3225L52.9052 12.3242L53.4969 12.3484L53.4986 12.3493L53.5333 12.351H53.5419L54.311 12.2948L54.458 12.2887L55.2375 12.4548L55.6571 12.6417L56.036 12.967L56.2402 13.0526L57.0862 13.9281L57.1277 14.0293L57.2852 14.1686L57.8423 14.9654L57.8432 14.9688L57.8458 14.9706L58.9073 16.4879L58.9375 16.5831L59.1002 16.5009L60.454 16.3539L60.6669 16.3417L60.8157 16.3478L61.6816 16.4161L62.6877 16.9058L63.0286 15.9888L63.122 15.8694L63.1679 15.6972L64.2544 13.8269L64.3167 13.7646L64.3384 13.6971L66.9622 9.93655L67.1603 9.76266L67.3558 9.51783L69.9883 7.40094L70.0895 7.36547L70.1985 7.253L70.8309 6.86111L70.9218 6.83516L70.9918 6.77113L71.1095 6.71144L73.0992 5.23819L74.5673 4.13605L74.6529 4.1075L74.736 4.02098L74.9531 3.88862L75.0552 3.86008L75.1322 3.79087L77.1617 2.80379L77.1868 2.79773L77.2007 2.78475L78.6393 2.11085L78.6878 2.10046L78.7155 2.07711L80.6066 1.2691L81.046 1.17741L81.1619 1.11599L82.194 0.983626L82.4648 0.965449L82.5608 0.96805L86.4157 1.14886L86.4572 1.16789L86.9131 1.23796L87.7886 1.51132L88.0654 1.71031L88.37 1.81066L90.063 3.06851L90.281 3.32718L90.3926 3.37909L91.1184 4.2338L91.1746 4.38692L91.3485 4.566L92.3451 6.36627L92.3979 6.56698L92.4922 6.69328L93.2578 8.90014L93.3313 9.32665L93.3659 9.39759L93.6869 12.9739L93.6955 13.1582L93.6929 13.2499L93.5467 16.4257L93.5208 16.4845L93.4144 17.0485L92.8996 18.3713L92.7283 18.5849L92.6539 18.8107L89.8571 22.6007L89.8424 22.6128L89.8389 22.625L87.9426 25.0948L87.8933 25.1182L87.8691 25.1839L86.6597 26.5655L86.6225 26.5819L86.606 26.6243L84.0713 29.2707L81.1628 32.9404L81.1507 32.9456L81.1455 32.962L80.8488 33.3228L80.9362 33.3539L82.7641 34.8376L82.8307 34.9777L83.1949 35.335L84.2573 37.1059L84.4069 37.6431L84.5151 37.8481L84.6396 38.8369L84.6552 39.08L84.6526 39.1787L84.5073 41.947L84.4779 42.011L84.3741 42.5439L83.8446 43.8554L84.022 44.0301L84.0626 44.1279L84.227 44.2741L84.9952 45.3823L85.1155 45.7638L85.279 46.0268L85.458 46.8305L85.5039 47.2379V47.2743L85.4355 50.675L85.4027 50.7502L85.1544 51.6136L84.695 52.3455L84.4554 52.5721L84.1872 52.8723L83.4475 53.3836L83.4761 53.4744L83.6076 53.6371L83.8576 54.2478L83.9329 54.6241L83.9822 54.7176L84.0998 55.6571L84.1145 55.8932L84.1137 55.9391L84.0756 57.4824L84.0497 57.5404L83.8689 58.2809L83.2754 59.4246L83.2624 59.4384L83.2572 59.4583L82.6906 60.0622L82.7831 60.1625L83.0903 60.7655L83.1802 61.1366L83.2598 61.2768L83.3472 61.8027L83.3723 62.1021L83.3714 62.1522L83.3091 64.3314L83.278 64.4024L83.0894 65.1394L82.7338 65.79L82.4319 66.1023L82.3636 66.2554L82.0798 66.5115L81.9924 66.5452L81.8834 66.6655L81.3315 67.0401L81.3583 67.1093L81.4916 67.2338L81.9319 67.9129L81.9994 68.1396L82.1187 68.3057L82.4951 69.4667L82.5262 69.6656L82.5556 69.7184L82.7702 71.0169L82.7944 71.3015L82.7935 71.3586L82.6707 74.9869L82.6473 75.0396L82.5193 75.6314L82.2459 76.2326L82.0677 76.4385L82.406 76.7145L82.4778 76.8659L82.6283 76.9377L83.2373 77.6868L83.2814 77.8088L83.4077 77.9429L84.1197 79.2743L84.1768 79.5027L84.259 79.6255L84.682 81.1948L84.7019 81.3376L84.721 81.3713L84.8724 82.3108L84.8957 82.5859L84.8949 82.6136L84.8404 85.7876L84.8282 85.8153L84.6993 86.4278L84.4563 86.9763L84.1379 87.3483L84.0652 87.5135L83.6041 87.9322L83.6387 87.9729L84.1898 88.4746L84.2547 88.6234L84.3784 88.6866L84.99 89.5257L85.0151 89.6019L85.0852 89.6745L85.5376 90.4808L85.5904 90.6832L85.6708 90.8009L86.0878 92.269L86.1467 92.6834L86.1475 92.686L86.1631 96.9457V96.9509L86.0723 97.47L85.9364 97.8445L85.8638 97.9397L85.8266 98.0781L85.4061 98.8057L85.1405 99.0704L85.0869 99.188L83.9657 100.154L84.0929 100.346L84.1232 100.445L84.1959 100.528L84.5229 101.239L84.5627 101.418L84.6128 101.496L84.8334 102.429L84.8698 102.734L84.8715 102.739L84.9026 106.092V106.105L84.8871 106.313L84.7971 106.911L84.7452 107.003L84.6838 107.283L84.1336 108.469L84.0055 108.615L83.9588 108.747L82.784 110.205L82.5928 110.297L82.5046 110.468L82.4708 110.491L82.6776 110.738L82.733 110.89L82.8861 111.067L83.2564 111.868L83.316 112.135L83.3723 112.232L83.5522 113.22L83.5704 113.422L83.5756 113.434L83.6422 115.107L83.6439 115.169L83.6431 115.197L83.5998 117.555L83.5946 117.566L83.5505 117.909L83.2365 119.098L83.1534 119.222L83.098 119.436L82.5418 120.435L82.4224 120.557L82.3843 120.661L81.1628 122.116L81.0529 122.168L81.001 122.281L80.4958 122.72L80.5296 122.767L79.9491 123.158L79.9024 123.189L79.8409 123.231L79.7925 123.264L79.5338 123.316L79.4023 123.405L79.3573 123.415L79.276 123.434L79.1938 123.474L79.0286 123.554L79.0277 123.555L78.8772 123.689L78.3564 123.945L78.2907 124.007L78.0372 124.244L77.5303 123.525L77.487 123.389L77.3849 123.267L77.1859 122.813L77.1539 122.663L76.9031 122.057L77.3503 120.976L78.4317 120.529H78.449L78.949 120.095L79.9993 118.857L80.3799 118.143L80.6083 117.308L80.6515 115.165L80.6299 113.636L80.4993 112.922L80.3012 112.459L80.1506 112.283L79.8496 112.141L79.4793 112.13L79.0277 112.225L78.7033 112.26L77.6202 111.811L77.1721 110.728L77.1816 110.704L77.1773 110.694L77.1721 110.707L77.173 110.661L77.2171 110.555L77.4991 109.753L77.577 109.704L77.6073 109.632L77.8685 109.522L78.3287 109.234L78.4585 109.204L78.7942 109.166L78.8444 109.167L79.0849 109.175L79.8548 108.875L80.7398 108.276L81.6801 107.128L82.066 106.286L82.1127 105.989L82.1421 102.845L82.0409 102.154L81.8454 101.683L81.2199 100.711L81.1083 100.665L80.6775 99.6249L81.1083 98.5851L81.1265 98.5773L81.1343 98.56L81.4128 98.2944L81.5737 98.2304L81.5876 98.2053L81.6135 98.1482L81.6222 98.1404L81.6334 98.1205L81.6888 98.0842L81.8808 97.9207L81.8869 97.9181L81.8895 97.9138L82.9017 97.0616L83.1162 96.6671L83.1179 96.6637L83.1318 92.8391L82.9017 91.6997L82.5798 91.1175L82.0478 90.2888L81.6646 89.71L80.8566 88.8769L80.8315 88.8138L80.7796 88.7895L80.2493 88.139L80.1783 87.94L80.1117 87.8994L80.0563 87.7454L79.9906 87.6502L79.9032 87.3561L79.8937 87.2886L79.7674 86.9356L80.1117 85.9719L80.1844 85.9287L80.2121 85.862L80.4785 85.7513L80.9829 85.4477L81.4492 85.3516L81.5435 85.3205L81.5737 82.6785L81.4812 81.9302L81.1524 80.5884L80.6386 79.4906L80.2475 78.9464L79.4802 78.2249L79.3426 78.1601L79.2769 78.1583L79.27 78.1618L78.6869 78.2327L78.4767 78.2457L77.628 78.0164L77.4515 77.9144L77.2941 77.7552L77.2837 77.7509L77.2794 77.7413L77.2508 77.7119L77.1237 77.6566L77.0744 77.5346L76.8909 77.3503L76.6773 76.5579L76.8909 75.7663L77.0856 75.5717L77.1375 75.4454L77.2638 75.3935L77.4593 75.198L77.6202 75.1045L77.9888 75.0042L78.1652 74.9004L78.635 74.8121L79.1255 74.646L79.2829 74.4998L79.4127 71.3604L79.2959 70.3127L79.0632 69.5186L78.8028 69.1388L78.1436 68.3827L77.808 68.047L77.5778 67.9121L77.2223 67.7183L77.0968 67.5972L76.9429 67.5332L76.9342 67.5124L76.9143 67.5038L76.8278 67.4138L76.7776 67.2892L76.6055 67.1222L76.3693 66.271L76.8278 65.1291L76.9143 65.0374L77.1453 64.9387L78.0355 64.4941L78.7864 64.4223L78.8729 64.3833L79.6895 63.8271L79.7432 63.7371L79.8349 62.0545L79.834 61.6029L79.8219 61.3659L79.5823 61.173L79.0589 60.8684L79.0061 60.8148L78.949 60.7966L78.8175 60.7049L78.475 60.5622L78.4594 60.5241L78.4196 60.5042L77.949 59.2922L78.4196 58.0802L78.4594 58.0603L78.475 58.0214L78.8452 57.8683L79.5806 57.5032L79.8833 57.4747L80.2614 57.2515L80.4154 56.9547L80.45 55.9218L80.4076 55.2704L80.3332 55.0281L80.1506 54.721L79.7138 54.2487L79.6273 54.029L79.3781 53.7167L79.2605 53.4234L79.1662 52.9372L79.0762 52.7209L79.4179 51.6646L79.5555 51.5634L79.6039 51.4466L79.8556 51.3428L80.302 51.0132L80.4595 50.9596L81.7779 50.0694L81.8661 47.4066L81.7779 47.0113L81.4647 46.3469L80.8782 46.0043L80.8419 45.9671L80.7986 45.9541L80.6437 45.7673L80.2467 45.3667L80.2155 45.2525L80.1498 45.1729L80.0001 44.8243L79.8418 44.0656L79.9915 43.3259L80.1472 42.9574L80.148 42.9565L80.7995 41.4236L80.9024 39.1743L80.8401 38.7513L80.1039 37.586L78.7898 36.4839L78.6125 36.4207L78.2198 36.406L77.5701 36.5868L76.1297 35.9899L75.5319 34.5486L75.9878 33.264L76.0933 33.1342L76.1141 33.1178L76.1202 33.1022L76.1677 33.0754L76.5821 32.7475L76.7266 32.3945L76.7871 32.3201L76.8148 32.212L76.9861 31.8962L77.2638 31.6099L77.3356 31.4369L77.391 31.3832L77.4264 31.2907L77.8651 30.8192L77.8806 30.8123L77.8875 30.795L78.2293 30.4394L81.309 26.8717L81.3445 26.8553L81.3609 26.8146L83.8827 24.138L84.9563 22.8014L86.754 20.3169L89.325 16.7181L89.6122 15.9386L89.7195 13.2308L89.3579 10.0291L88.716 8.17952L87.9002 6.68809L87.4478 6.1474L86.2366 5.21309L85.9823 5.13264L82.5755 5.05218L81.97 5.13264L80.3453 5.83164L78.9507 6.48652H78.949L77.0017 7.44418L76.9143 7.4961L75.4921 8.49788L73.3994 10.0654L73.2368 10.1199L73.0776 10.2635L72.9219 10.3414L72.4859 10.6329L70.1406 12.5491L67.6283 15.936L66.6733 17.5572L65.4145 20.8576L65.059 21.9164L64.7026 23.7029L64.668 23.7608L64.6394 23.9356L64.4231 24.5732L64.0745 25.0403L63.9681 25.2973L63.8452 25.3483L63.7354 25.4954L62.6159 25.857L62.4663 25.8224L62.0363 25.7601L61.7318 25.671L61.2785 25.3544L61.0017 25.2436L60.9489 25.1242L60.8122 25.0291L60.5371 24.2072L60.4506 24.0143L60.3502 21.4086L60.2784 20.2122L59.9618 20.2624L59.1564 20.7278L58.8934 20.7987L58.7308 20.9121L58.1252 21.0937L57.5395 21.1811L56.3466 20.7849L56.2497 20.6465L56.1294 20.5963L56.0066 20.3004L55.6311 19.7658L55.5135 19.3817L55.4737 19.1204L55.4425 19.0616L55.3439 18.3687L54.5757 17.193L54.5705 17.1774L54.5575 17.1645L54.099 16.4438L53.785 16.0684L53.5419 16.0502H53.5384L53.4952 16.0519L53.4935 16.0528L53.1751 16.0666L53.1647 17.7389L53.317 19.3367L53.3187 19.3731L53.3204 19.3756L53.4156 20.5461L53.4191 20.6292L53.4208 20.6335L53.4917 22.259L53.4943 22.3576L52.8602 23.8871L51.3316 24.5204L49.8116 23.8958L49.809 23.8897L49.8021 23.8871L49.7234 23.6977L49.2605 24.196L48.9525 24.6778L48.6307 25.241L48.4664 25.5559L48.4015 25.6251L48.3773 25.7065L48.2648 25.8803L48.2579 25.9729L47.8348 26.8389L47.6627 27.255L47.6246 27.2706L47.6056 27.3103L46.2102 27.8562L44.7577 27.255L44.1564 25.8025L44.2083 25.3422L44.2205 25.2886L44.23 21.4925L44.0768 20.3696L43.7619 19.4405L43.1754 18.5166L42.0698 18.4673L39.2539 18.9483L38.3239 19.322L38.2383 19.3384L38.1985 19.3679L37.259 19.6784L37.1266 19.7001L37.0816 19.7277L36.983 19.7511L36.5401 19.9207L36.0081 20.1724L35.9908 20.1862L35.6785 20.8031L35.2468 21.9839L35.1473 24.4858L35.1412 27.9808L34.546 29.4125L34.4924 29.435L34.476 29.4757L34.4699 29.4774L34.4647 29.4895L34.3964 29.5501L33.0684 30.0588L32.1091 29.8122L31.8149 29.5397L31.6609 29.4757L31.6419 29.429L31.6237 29.4221L31.5839 29.3243L31.4005 29.1539L31.378 29.1193L31.1384 28.3199L29.3485 23.3516L29.3303 23.2513L29.3044 23.2115L29.2162 22.8888L28.8545 22.1985V22.1967L28.0102 20.6257L28.0042 20.6015L27.9894 20.5851L27.6417 19.9051L27.1174 19.0166L27.1088 18.982L27.0837 18.9569L25.2696 15.6159L25.2488 15.5363L25.2038 15.4827L24.5541 14.0163L22.8706 11.0378L20.8091 8.36724L19.7329 7.38796L18.8531 6.68722L17.5157 5.72177L17.4828 5.68371L17.4508 5.67332L16.9127 5.24338L13.5985 3.83153L9.58358 3.75367L6.94762 4.55908L6.92513 4.56254L6.90436 4.58157L6.18806 4.9354L6.08511 4.96048L6.02369 5.00807L4.08673 5.76243L4.05299 6.42077L4.09192 7.45889L4.22428 10.3743L4.91117 13.1625L6.04705 15.6228L7.79628 18.4958L7.80147 18.5157L7.81618 18.5296L10.5188 23.1086L17.4015 30.2301L19.1914 31.7561L20.1534 32.4914L20.2027 32.5511L20.2459 32.5676L20.8065 33.0529L20.8835 33.2224L21.2512 33.5936L21.4268 33.8998L21.7114 34.9561L21.0955 36.4432L19.6092 37.0592L19.3886 36.9986L19.2935 37.2322L19.3004 41.6494L19.8921 43.6417L20.3584 44.4765L20.5003 45.0146L20.611 45.2179L20.6733 45.6574L20.6958 45.9688L20.072 47.4741L18.5668 48.0978L18.2432 47.9698L17.918 47.9378L17.8392 49.6092L17.8124 51.4717L17.9854 53.426L18.0148 53.5376L18.3038 53.9987L18.3436 54.1354L18.4353 54.2418L18.4474 54.2669L18.6481 55.1683L18.027 56.6675L16.9283 57.1226L16.8755 58.3925L17.0286 59.5768L17.167 60.0578L17.1818 60.0587L17.3158 60.1184L18.1567 60.3745L18.3081 60.5596L18.4552 60.6245L18.5296 60.8096L18.54 60.8139L18.5642 60.8719L18.732 61.0769L18.8021 61.1384L18.8125 61.1756L18.8358 61.2041L18.9189 61.4005L19.008 61.8399L19.1109 62.192L19.0971 62.4291L19.0616 62.718L18.6481 63.5001L18.4898 63.8833L18.4336 63.9058L18.4033 63.9646L17.071 64.4707L16.9473 64.4655L16.9352 65.8895L17.8609 67.9415L18.1386 68.3585L18.4699 69.4433L17.9006 70.8171L16.5269 71.3863L16.1307 71.2652L15.1349 71.8414L15.1245 72.4167L15.1912 74.165L15.6704 76.0129L16.0926 76.7854L16.5736 77.3806L16.6324 77.4048L17.2016 78.7786L16.6324 80.1532L15.2586 80.7216L15.2258 80.7069L15.173 83.9796L15.4637 85.6051L15.9481 86.9841L16.0286 86.9815L17.3132 87.4815L17.334 87.5222L17.3747 87.5395L17.5373 87.9322L17.924 88.7134L17.9552 89.0612L17.9638 89.2472L17.3842 90.6478L16.3936 91.0578L15.9836 91.2274L15.7682 91.2161L15.038 91.1366L14.9905 91.1123L14.9403 91.1781L14.7906 91.5639L14.7171 93.3599L14.8503 95.8358L15.0553 97.0218L15.2638 97.6438L16.0018 97.5011L16.3365 97.4682L16.3391 97.4665L17.1091 97.4639H17.116L18.2199 97.8419L18.2917 97.951L18.3886 97.9907L18.5071 98.278L18.8566 98.8091L18.9344 99.1041L18.9967 99.5799V99.5972L18.9889 100.37L18.9708 100.414L18.6766 101.414L18.4725 101.591L18.4076 101.745L18.1965 101.832L17.8531 102.131L17.5148 102.289L16.6636 102.479L16.603 102.478L16.321 102.469L16.3028 103.823L16.3504 105.309L16.6964 107L17.174 108.09L17.4577 108.436L17.7735 108.605L17.8038 108.633L18.4785 108.913L19.0616 110.32L18.4785 111.728L17.071 112.311L16.7215 112.28L16.4897 112.238L16.4568 112.219L16.09 112.13L15.859 112.144L15.8417 112.149L15.5415 112.409L15.1237 113.236L15.0129 113.999L14.9801 116.902L15.1678 118.148L15.5182 119.466L16.0173 120.558L16.2665 120.928L16.3694 121.02L16.5788 121.098L17.0373 121.457L17.2942 121.563L17.3513 121.702L17.5243 121.837L17.8929 123.009L17.2942 124.455L16.0485 124.971L15.93 124.991L15.8737 125L15.7163 125.026L15.6375 125.009L15.6358 125.039L15.2681 125.099L15.1462 125.067L14.5423 124.746L13.8831 124.523L13.6859 124.402L13.6141 124.358L13.5812 124.323L13.5051 124.23L13.1461 123.597L12.8874 123.354L12.7706 123.181L12.7559 123.158L12.5344 123.009L12.4929 122.982L12.5405 122.852L12.7092 122.653L12.6218 122.502L12.5751 122.329L12.4825 122.211L11.9427 120.802L11.896 120.551L11.8475 120.469L11.5422 118.884L11.5257 118.714L11.5145 118.692L11.3769 117.199L11.37 117.05L11.3691 117.048L11.3328 113.877V113.855L11.357 113.559L11.5499 112.371L11.6382 112.216L11.7351 111.824L12.4765 110.415L12.864 110.004L12.9315 109.863L13.595 109.322L13.2058 108.14L13.1651 107.892L13.1314 107.83L12.8225 105.792L12.8052 105.563L12.8017 105.556L12.7646 103.881L12.7637 103.84L12.7654 103.761L12.8831 101.14L11.9989 99.9043L11.8995 99.5964L11.7178 99.3386L11.3285 98.079L11.2705 97.6975L11.2446 97.6456L11.1321 96.1965L11.1261 96.0451V96.0079L11.1797 93.3339V93.333L11.1806 93.2958L11.2731 91.1175L11.2887 91.0829L11.351 90.6711L11.6399 89.742L11.8484 89.4513L11.947 89.1685L12.4756 88.5049L11.9081 86.6199L11.8744 86.3949L11.8458 86.343L11.5603 84.4L11.5396 84.1267L11.5404 84.0747L11.6555 79.9949L11.6884 79.9197L11.8865 79.1662L12.1711 78.6635L12.3839 78.4473L12.4427 78.3045L12.6036 78.1393L12.2983 77.5225L12.2273 77.224L12.1451 77.0908L11.646 74.8277L11.6027 74.4462L11.601 74.4419L11.5863 72.4478V72.434L11.5889 72.3397L11.6572 71.0671L11.7827 70.7972L12.0309 70.0826L12.4938 69.4961L12.6166 69.4373L12.9497 69.0938L14.0276 68.4363L13.4419 66.9432L13.313 66.271L13.3139 66.2468L13.3684 62.167L13.5319 61.7828L13.4912 61.5744L13.4367 61.4818L13.2187 60.3511L13.2049 60.2118L13.1936 60.1902L13.0249 58.7031L13.012 58.4764L13.0137 58.3891L13.1556 55.2583L13.2308 55.0922L13.4757 54.2833L13.6755 54.1172L13.7473 53.9597L13.9748 53.868L14.0501 53.8058L13.9757 51.6119L13.9748 51.5712L13.974 51.5703L13.9454 49.578V49.5486L13.948 49.4543L14.0864 46.5952L14.2517 46.2335L14.5423 45.4394L15.0649 44.82L15.096 44.8061L15.1107 44.7681L15.9282 44.3597L15.4464 42.4219L15.3849 41.9357L15.3858 41.8977L15.4844 36.8204L15.4991 36.7867L15.641 36.1015L16.0182 35.2321L16.1428 35.0841L16.1955 34.918L16.3106 34.7511L14.6306 33.3029L14.5951 33.225L14.5095 33.1896L7.31615 25.8812L7.24694 25.7125L6.99347 25.4582L4.20785 20.6534V20.6525L2.41968 17.6896L2.37556 17.533L2.27954 17.4171L1.10473 14.6479L1.05542 14.41L0.994 14.3131L0.237038 11.152L0.192052 10.7757L0.179941 10.7497L0.0501763 7.62672V7.62499L0.00259552 6.4969L0 6.40606L0.00951665 6.21488L0.185997 4.35232L0.269911 4.18535L0.4239 3.58843L0.739661 3.25018L0.82444 3.08148L0.938633 3.0365L1.08484 2.88078L1.37291 2.69479L1.60044 2.62644L1.77346 2.49495L4.5807 1.48106L5.18714 1.17394L5.45186 1.10993L5.58422 1.02341L5.72696 0.986214L5.86192 0.895382L8.80412 0.0726681L9.32145 0L9.39412 0.00172925ZM77.6202 109.645L77.6021 109.689L77.6202 109.645L77.7725 109.582L77.7794 109.578L77.6202 109.645Z" fill="black"/>
<path d="M39.4943 48.9912L40.0566 49.0432L40.5575 49.2932L41.0878 49.4965L41.4079 49.7845L41.4927 49.9775L41.8646 50.4455L42.0403 50.8927L42.1069 51.2431L42.1718 51.3884L42.3508 52.2233L42.2116 52.7224V52.7423L42.1692 52.9897L42.2548 53.4673L42.2816 53.7579L41.8491 54.848L41.6562 55.053L41.4451 55.1438L40.7919 55.5115L40.4476 55.5677L40.3594 55.5747L40.3481 55.5807L39.8256 55.6335L39.656 55.6421L38.6845 55.3177L38.329 55.0504L37.867 54.8834L37.572 54.6395L37.4933 54.4708L36.9872 53.7995L36.7355 53.0901L36.6213 52.4309L36.6308 52.308L36.6239 52.2855L36.636 52.2475L36.6455 52.122L36.7952 51.1981L37.0919 50.6739L37.1005 50.6436L37.1196 50.6246L37.181 50.5173L37.3289 50.1574L37.3618 50.1436L37.4587 49.8512L37.6075 49.7473L37.6663 49.6167L37.9613 49.4982L38.4215 49.1746L38.7719 49.0674L39.3238 48.9835L39.4943 48.9912Z" fill="black"/>
<path d="M58.8539 49.3572L59.3608 49.4558L59.533 49.5587L59.8963 49.6522L60.2692 49.9999L60.437 50.1003L60.4673 50.1851L60.5668 50.2776L60.7908 50.6228L60.9318 51.0977L61.0711 51.3443L61.2026 52.1367L61.2303 52.4603L61.2286 52.5459L61.2018 53.1325L61.155 53.2363L61.1516 53.2484L61.1853 54.1991L61.1862 54.2649L60.8912 55.2468L60.732 55.489L60.6213 55.5902L60.5893 55.675L60.4413 55.7546L60.0979 56.0703L59.6437 56.1863L59.4828 56.2728L58.9551 56.3454L58.6973 56.3636L57.6696 56.0435L57.237 55.7451L56.8373 55.2943L56.692 55.1464L56.2759 54.4154L56.2058 54.1507L56.2006 54.1342L56.0233 53.8834L55.7525 53.0053L55.6686 52.4603L55.6703 52.3885L55.7127 51.3253L55.8027 51.1254L56.0743 50.3027L56.2205 50.1998L56.2776 50.0726L56.5614 49.9584L57.0103 49.64L57.3789 49.525L57.622 49.4878L57.8261 49.3831L58.2751 49.3338L58.4897 49.3217L58.8539 49.3572Z" fill="black"/>
<path d="M52.6553 62.803L54.2479 63.6595L54.3508 63.7581L54.4616 63.7936L54.6528 64.0462L55.0438 64.4207L55.1078 64.6509L55.2272 64.81L55.363 65.1907L55.4876 65.9079L55.485 66.022L55.4045 67.4996L55.3492 67.6199L55.1675 68.3595L54.6484 69.3492L54.5152 69.492L54.1406 69.9807L53.7825 70.2861L52.3447 70.8173L52.048 70.7974L49.9752 70.5171L47.9456 70.3761L46.9283 70.6192L46.8971 70.6227L46.8894 70.627L46.4196 70.7342L45.9369 70.7896L45.9317 70.7922L45.0406 70.7983H45.0242L44.519 70.7403L44.0242 70.6261L43.5873 70.3484L43.1357 70.1892L42.5915 69.7506L42.5561 69.7056L42.5241 69.6935L42.4782 69.6079L41.9842 68.9867L41.864 68.4608L41.7784 68.3016L41.6183 67.1103L41.5967 66.7998L41.8562 65.7521L42.2299 65.0428L42.2965 64.9718L42.3225 64.8862L42.6348 64.6145L43.0345 64.1915L43.1625 64.156L43.2585 64.0721L43.8996 63.7745L44.7171 63.592L44.7673 63.5704L45.9066 63.5435H45.9576L46.3193 63.5747L47.6359 63.8048L47.7657 63.8801L47.8678 63.7737L49.13 62.9847L49.9259 62.7546L50.1534 62.6447L51.4121 62.5435L51.5981 62.5366L52.6553 62.803Z" fill="black"/>
<path d="M47.863 67.4926L47.9469 67.6033L48.0386 67.6405L48.1121 67.8187L48.3509 68.131L48.4616 68.4347L48.4927 68.6077L48.5248 68.6622L48.7229 69.7038L48.7289 69.7661L48.735 69.7782L48.9253 71.1079L48.9288 71.1615L48.9331 71.1693L49.1459 73.1633L49.1554 73.3398V73.3407V73.9826L49.3501 77.4966L50.3034 86.0827L50.3077 86.1615L50.3112 86.1684L50.37 87.0741L50.3726 87.1702L50.3735 87.1719L50.4323 92.2085V92.231L49.921 93.5001L49.4331 94.0079L49.4253 94.0105L49.4227 94.0183L48.9002 94.5529L48.7843 94.6014L48.7358 94.7017L47.8085 95.4561L46.6319 95.8748L46.3854 95.8592L46.2245 95.8376L46.118 95.8246L45.2824 95.4466L45.2495 95.3938L45.2071 95.3765L45.1612 95.2649L45.1457 95.2563L45.1154 95.1775L44.7979 94.6628L44.7694 94.5555L45.0531 95.0106L45.0237 94.9327L44.746 94.2631L44.759 94.2311L44.7088 94.097L44.9329 93.238L45.0133 93.0944L45.1924 92.9118L45.246 92.7708L46.0488 91.8772L46.1829 91.8166L46.4321 91.5476L46.7954 91.3105L46.9113 87.1901L46.8906 86.3829L46.0731 77.7951L46.0653 77.6324V77.6169L46.0973 74.1565L46.0013 73.6374L45.977 73.3736L45.9744 73.3675L45.9398 71.3726L45.8862 70.0992L45.7625 69.1026L45.753 68.9572L45.7512 68.9529L45.7443 68.6216L45.7435 68.5913L46.1371 67.6405L47.0878 67.2469L47.863 67.4926ZM45.3066 95.4172L46.1362 95.79L45.9026 95.6646L45.3066 95.4172Z" fill="black"/>
<path d="M50.0148 89.0964L50.1455 89.2469L50.2588 89.2936L50.3245 89.4528L50.5538 89.7158L50.6645 89.9554L50.8695 90.1648L50.9111 90.2677L51.072 90.4139L51.5313 91.0982L51.9163 91.446L52.5833 91.8024L52.6525 91.869L52.7321 91.8933L53.4276 92.3621L53.4917 92.4841L53.6569 92.5525L54.1223 93.6762L53.6569 94.8009L52.5323 95.2663L52.3809 95.2585L51.5443 95.1789L51.3999 95.1062L50.8695 94.9722L50.0105 94.5102L49.5442 94.0638L49.4309 94.0076L48.8893 93.2826L48.2587 92.5282L48.167 92.2765L47.9498 91.9893L47.7604 91.4616L47.6609 90.8975L47.6765 90.6683L47.7535 90.1233L48.0571 89.5679L48.1704 89.2936L48.2171 89.2746L48.2448 89.2244L49.2146 88.8611L50.0148 89.0964Z" fill="black"/>
<path d="M48.2606 99.0133L48.4665 99.0358L48.5816 99.06L49.432 99.0678L49.4389 99.0704L49.8948 99.1257L50.4459 99.2607L50.6483 99.3913L50.977 99.4839L51.5272 99.8187L52.125 100.438L52.1259 100.44L52.2669 100.688L52.4797 101.484L52.0126 102.611L50.8853 103.078L50.6362 103.058L50.5151 103.039L50.1033 103.057L49.6084 103.103L49.4328 103.111L49.4311 103.112L48.5816 103.119L48.4804 103.142L48.0236 103.191L46.642 102.673L46.6187 102.653L46.5944 102.599L46.5382 102.576L46.0538 101.406L45.8911 101.048L46.5157 99.5401L48.0236 98.9155L48.2606 99.0133Z" fill="black"/>
<path d="M14.3588 11.4445L14.8225 11.461L14.8761 11.4852L15.4808 11.6098L16.0353 11.8459L16.4852 11.9878L17.0691 12.4091L17.2837 12.5043L17.8572 13.1341L17.8832 13.2015L17.9368 13.2275L18.3235 13.7111L20.1913 15.8868L20.9413 16.713L20.9612 16.7649L21.0036 16.7848L23.2788 19.5393L23.2866 19.56L23.3022 19.5678L24.5107 21.0835L24.5306 21.1388L24.5955 21.1977L25.567 22.6147L25.6483 22.876L25.8032 23.0862L26.0843 23.9245L26.1856 24.5344L26.1847 24.6079L26.1639 25.1174L26.8612 25.4055L27.2384 26.3173L27.2315 26.3338L27.2842 26.4627L26.9944 27.2715L26.9347 27.3079L26.9114 27.3624L26.6873 27.4558L26.2608 27.711L26.0696 27.7491L24.1906 28.705L23.6724 28.8304L23.5738 28.878L23.0089 28.9178L22.88 28.923L21.6542 28.4143L21.617 28.3261L21.5408 28.2898L21.2804 27.9731L19.9266 27.0544L19.7726 26.8822L19.6653 26.839L16.0163 23.2506L15.9834 23.1718L15.8468 23.0602L11.933 18.0643L11.8716 17.8861L11.7055 17.7001L10.7115 15.6394L10.5099 14.7674L10.5134 14.6393L10.5515 14.0554L10.574 14.0078L10.6337 13.6133L10.7963 13.0848L11.029 12.7578L11.1354 12.461L11.3188 12.3512L11.4624 12.1505L11.895 12.0068L12.2116 11.8183L12.8699 11.6876L13.2376 11.6504L13.3752 11.6556L13.7212 11.6816L14.2956 11.4437L14.3588 11.4445Z" fill="#B7B7B7"/>
<path d="M25.2246 22.4632L25.7299 23.1942L26.0785 23.6449L26.1918 23.9753L26.1979 23.9857L26.255 24.048L26.4194 24.3733L27.0474 24.6328L27.4246 25.5446L27.0474 26.4565L26.1356 26.8336L25.806 26.7904L25.7359 26.7722L25.6494 26.7826L25.4928 26.7912L24.6563 26.4902L24.4218 26.2947L24.3647 26.1736L24.0049 25.6969L23.8362 25.2228L23.8163 25.1899L23.7505 24.9495L23.6623 24.8119L23.5784 24.4702L23.1813 23.9433L22.9243 23.1803L23.2937 22.2884L24.1865 21.919L25.2246 22.4632Z" fill="#B7B7B7"/>
<path d="M79.7761 11.7386L81.5427 11.9194L82.0254 12.166L82.5038 12.3494L83.8464 13.5623L83.9304 13.7509L84.2902 14.218L84.6726 15.2458L84.7799 15.834L84.7461 16.1697L84.5887 16.9318L84.4676 17.1291L84.3716 17.457L83.5558 18.7261L83.4649 18.7754L83.4122 18.9146L82.7677 19.6405L82.746 19.6508L82.7356 19.6751L81.6871 20.785L78.9162 24.1554L78.8626 24.1814L78.8366 24.2454L78.0053 25.1157L77.9707 25.1304L77.956 25.165L77.0718 26.0163L75.3347 28.2491L75.2387 28.2958L75.1911 28.4117L74.807 28.795L74.7888 28.8027L74.7811 28.82L74.4411 29.1445L74.1746 29.2517L73.7594 29.5415L73.6062 29.5882L73.0872 29.6652L72.5975 29.4645L72.4436 29.6159L72.3648 29.6609L72.2005 29.7864L71.8164 29.917L71.5309 30.0822L71.0767 30.1627L70.8059 30.1869L69.7479 29.7492L69.5922 29.372L68.3923 28.4965L68.3248 28.4178L68.2669 28.3961L68.2011 28.2724L67.8378 27.8477L67.727 27.3892L67.6466 27.2404L67.586 26.7914L67.5696 26.5543L67.9545 25.4764L68.0367 25.4271L68.0679 25.351L68.3205 25.2463L68.407 25.0759L68.4373 25.0421L68.4494 24.9989L68.875 24.2601L69.9503 21.8153L70.5196 20.4485L70.5983 20.3524L70.6338 20.2253L71.1381 19.3896L71.1554 19.3723L71.1615 19.3533L71.844 18.2926L72.3155 17.2822L72.3847 17.2035L72.4133 17.1049L73.3017 15.6748L73.3597 15.6195L73.3787 15.5632L73.4436 15.475L73.5561 15.4188L73.614 15.2786L74.2784 14.616L74.3009 14.6073L74.3096 14.5857L76.0008 12.9809L76.3503 12.8416L76.872 12.5302L77.4309 12.4195L77.603 12.371L78.9638 11.8494L79.5988 11.7291L79.7761 11.7386ZM79.8566 15.2371L79.8678 15.238L80.476 15.5684L80.7762 15.693L80.797 15.7432L80.8497 15.7717L81.1629 16.6057L81.4622 16.1333L81.3342 15.8046L80.7027 15.2821L79.8722 15.2311L79.8566 15.2371Z" fill="#B7B7B7"/>
</svg>
