<svg width="90" height="97" viewBox="0 0 90 97" fill="none" xmlns="http://www.w3.org/2000/svg">
<path d="M3.33167 0C1.48574 0 0 1.51205 0 3.39065V20.0231C0 21.3977 0.270135 22.1767 0.90045 22.8181C5.58279 27.6292 15.1726 37.3429 19.8549 42.154C20.1701 42.4747 20.5753 42.2456 20.5753 41.8791V22.1767C20.5753 21.7643 20.2601 21.4436 19.8549 21.4436H4.86243C3.87194 21.4436 3.10655 20.6188 3.10655 19.6566V4.99433C3.10655 3.9863 3.91696 3.20737 4.86243 3.20737H55.1526C56.1431 3.20737 56.9085 4.03212 56.9085 4.99433V19.6566C56.9085 20.6646 56.098 21.4436 55.1526 21.4436H40.1601C39.7549 21.4436 39.3947 21.7643 39.3947 22.2225V79.3595C39.3947 80.3675 38.5843 81.1464 37.6388 81.1464H22.7364C22.3312 81.1464 22.061 81.6505 22.3762 81.9254C25.6628 85.2244 32.1911 91.914 35.5678 95.3505C36.4682 96.2669 37.6388 97 39.1246 97H53.4417C54.7924 97 55.918 95.9003 55.918 94.4799V60.436C55.918 60.0236 56.2331 59.6571 56.6833 59.6571H58.2591C74.3772 59.6571 90 49.6684 90 29.6911C89.91 11.9589 77.8889 0 58.2141 0H3.33167Z" fill="url(#paint0_linear)"/>
<path d="M3.33167 0C1.48574 0 0 1.51205 0 3.39065V20.0231C0 21.3977 0.270135 22.1767 0.90045 22.8181C5.58279 27.6292 15.1726 37.3429 19.8549 42.154C20.1701 42.4747 20.5753 42.2456 20.5753 41.8791V22.1767C20.5753 21.7643 20.2601 21.4436 19.8549 21.4436H4.86243C3.87194 21.4436 3.10655 20.6188 3.10655 19.6566V4.99433C3.10655 3.9863 3.91696 3.20737 4.86243 3.20737H55.1526C56.1431 3.20737 56.9085 4.03212 56.9085 4.99433V19.6566C56.9085 20.6646 56.098 21.4436 55.1526 21.4436H40.1601C39.7549 21.4436 39.3947 21.7643 39.3947 22.2225V79.3595C39.3947 80.3675 38.5843 81.1464 37.6388 81.1464H22.7364C22.3312 81.1464 22.061 81.6505 22.3762 81.9254C25.6628 85.2244 32.1911 91.914 35.5678 95.3505C36.4682 96.2669 37.6388 97 39.1246 97H53.4417C54.7924 97 55.918 95.9003 55.918 94.4799V60.436C55.918 60.0236 56.2331 59.6571 56.6833 59.6571H58.2591C74.3772 59.6571 90 49.6684 90 29.6911C89.91 11.9589 77.8889 0 58.2141 0H3.33167Z" fill="white"/>
<defs>
<linearGradient id="paint0_linear" x1="-1.64263e-06" y1="21.077" x2="90.045" y2="21.2982" gradientUnits="userSpaceOnUse">
<stop stop-color="#780096"/>
<stop offset="1" stop-color="#FF0082"/>
</linearGradient>
</defs>
</svg>
