<svg width="80" height="51" viewBox="0 0 80 51" fill="none" xmlns="http://www.w3.org/2000/svg">
<path d="M41.3512 40H30.6488V8.85154H21V0H51V8.85154H41.3512V40Z" fill="#2E2E2E"/>
<path d="M64.8282 0C69.9041 0 73.6924 1.10177 76.1931 3.30532C78.731 5.50887 80 8.64613 80 12.7171C80 14.5472 79.7387 16.3025 79.2162 17.9832C78.6937 19.6265 77.8353 21.1204 76.6409 22.465C75.4839 23.7722 73.935 24.8179 71.9942 25.6022C70.0534 26.3492 67.6647 26.7227 64.8282 26.7227H61.805V40H51V0H64.8282ZM64.6042 8.7395H61.805V17.9272H63.9324C65.3507 17.9272 66.5824 17.5724 67.6274 16.8627C68.6725 16.1158 69.195 14.8273 69.195 12.9972C69.195 11.7274 68.8218 10.7003 68.0753 9.91597C67.3288 9.13165 66.1718 8.7395 64.6042 8.7395Z" fill="#2E2E2E"/>
<path d="M37 31C37 40.3888 29.165 48 19.5 48C9.83502 48 2 40.3888 2 31C2 21.6112 9.83502 14 19.5 14C29.165 14 37 21.6112 37 31Z" fill="#3047B0"/>
<path d="M37 31C37 40.3888 29.165 48 19.5 48C9.83502 48 2 40.3888 2 31C2 21.6112 9.83502 14 19.5 14C29.165 14 37 21.6112 37 31Z" fill="url(#paint0_linear)"/>
<path d="M37 31C37 40.3888 29.165 48 19.5 48C9.83502 48 2 40.3888 2 31C2 21.6112 9.83502 14 19.5 14C29.165 14 37 21.6112 37 31Z" fill="url(#paint1_linear)"/>
<path fill-rule="evenodd" clip-rule="evenodd" d="M19 15.7941C10.0497 15.7941 2.79412 23.0497 2.79412 32C2.79412 40.9503 10.0497 48.2059 19 48.2059C27.9503 48.2059 35.2059 40.9503 35.2059 32C35.2059 23.0497 27.9503 15.7941 19 15.7941ZM0 32C0 21.5066 8.50659 13 19 13C29.4934 13 38 21.5066 38 32C38 42.4934 29.4934 51 19 51C8.50659 51 0 42.4934 0 32Z" fill="white"/>
<path d="M18.6861 27C19.544 27 20.1874 27.2572 20.6164 27.7715C21.0546 28.2858 21.2738 29.1174 21.2738 30.2664V36.0606H19.5114V30.6604C19.5114 29.3363 19.0824 28.6742 18.2245 28.6742C17.6091 28.6742 17.1708 28.9095 16.9097 29.3801C16.6486 29.8506 16.5181 30.5345 16.5181 31.4318V36.0606H14.7557V30.6604C14.7557 29.3363 14.3221 28.6742 13.4549 28.6742C12.8114 28.6742 12.3685 28.9369 12.1261 29.4621C11.8836 29.9874 11.7624 30.737 11.7624 31.7109V36.0606H10V27.1641H11.3568L11.6085 28.3295H11.7065C11.9396 27.8699 12.2566 27.5362 12.6576 27.3283C13.0586 27.1094 13.4782 27 13.9164 27C14.4853 27 14.9608 27.1094 15.3432 27.3283C15.7348 27.5471 16.0332 27.8973 16.2383 28.3788H16.3782C16.6113 27.8973 16.9377 27.5471 17.3573 27.3283C17.7769 27.1094 18.2199 27 18.6861 27Z" fill="white"/>
<path d="M22.3489 27.1641H24.2652L25.7758 32.1869C25.8784 32.5042 25.9623 32.8215 26.0276 33.1389C26.0929 33.4453 26.1395 33.7517 26.1675 34.0581H26.2234C26.2607 33.7736 26.3167 33.4726 26.3913 33.1553C26.4659 32.827 26.5498 32.5042 26.643 32.1869L28.0977 27.1641H30L26.7689 37.2424C26.4799 38.1288 26.0836 38.8072 25.58 39.2778C25.0858 39.7593 24.475 40 23.7477 40C23.5146 40 23.3094 39.9836 23.1322 39.9508C22.9644 39.9289 22.8198 39.9015 22.6986 39.8687V38.2273C22.8012 38.2492 22.9224 38.271 23.0623 38.2929C23.2115 38.3148 23.3654 38.3258 23.5239 38.3258C23.9528 38.3258 24.2978 38.1726 24.5589 37.8662C24.82 37.5707 25.0205 37.1987 25.1604 36.75L25.3842 36.0278L22.3489 27.1641Z" fill="white"/>
<defs>
<linearGradient id="paint0_linear" x1="2" y1="30.7302" x2="37" y2="30.7302" gradientUnits="userSpaceOnUse">
<stop stop-color="#0087FF"/>
<stop offset="1" stop-color="#3047B0"/>
</linearGradient>
<linearGradient id="paint1_linear" x1="19.5" y1="14" x2="18.6519" y2="67.1611" gradientUnits="userSpaceOnUse">
<stop stop-color="#780096"/>
<stop offset="1" stop-color="#FF0082"/>
</linearGradient>
</defs>
</svg>
