<svg width="1316" height="1299" viewBox="0 0 1316 1299" fill="none" xmlns="http://www.w3.org/2000/svg">
<g clip-path="url(#clip0)">
<path d="M1227.53 822.81C1247.65 811.19 1280.39 811.19 1300.51 822.81C1320.63 834.43 1320.63 853.33 1300.51 864.95C1280.39 876.57 1247.65 876.56 1227.52 864.95C1207.41 853.33 1207.41 834.42 1227.53 822.81Z" fill="#780096"/>
<path d="M1227.53 863.77C1247.66 875.38 1280.39 875.39 1300.52 863.77C1310.16 858.21 1315.18 850.96 1315.58 843.65L1315.61 843.68L1315.63 833.56L1313.48 835.41C1311.12 830.8 1306.81 826.45 1300.51 822.81C1280.39 811.2 1247.65 811.19 1227.53 822.81C1221.5 826.29 1217.28 830.43 1214.87 834.83C1213.48 834.27 1212.46 833.87 1212.46 833.87L1212.44 843.86C1212.44 843.86 1212.46 843.85 1212.48 843.84C1212.95 851.08 1217.96 858.25 1227.53 863.77Z" fill="#501456"/>
<path d="M1300.54 853.33C1310.32 847.68 1315.34 840.32 1315.61 832.91C1315.31 825.51 1310.29 818.17 1300.53 812.54C1280.41 800.93 1247.67 800.92 1227.55 812.54C1217.77 818.19 1212.75 825.55 1212.47 832.96C1212.77 840.35 1217.8 847.69 1227.55 853.32C1247.68 864.95 1280.42 864.95 1300.54 853.33Z" fill="#780096"/>
<path d="M1281.26 832.33C1276.76 829.73 1275.7 826.14 1278.9 824.29C1282.09 822.45 1288.33 823.05 1292.82 825.65C1297.32 828.25 1298.37 831.85 1295.18 833.69C1291.99 835.53 1285.76 834.92 1281.26 832.33Z" fill="#501456"/>
<path d="M1255.82 847.02C1251.32 844.42 1250.27 840.82 1253.46 838.98C1256.65 837.14 1262.89 837.74 1267.39 840.34C1271.88 842.94 1272.94 846.53 1269.75 848.38C1266.55 850.22 1260.31 849.61 1255.82 847.02Z" fill="#501456"/>
<path d="M1229.4 832.1C1227.69 831.11 1227.68 829.51 1229.4 828.52L1260.78 810.4C1262.5 809.41 1265.28 809.41 1267 810.4C1268.72 811.39 1268.72 813 1267 813.98L1235.61 832.1C1233.91 833.1 1231.12 833.1 1229.4 832.1Z" fill="#501456"/>
<path d="M1295.18 833.69C1295.76 833.35 1296.19 832.97 1296.5 832.53C1296.64 830.77 1295.18 828.71 1292.31 827.05C1287.81 824.46 1281.58 823.85 1278.38 825.69C1277.8 826.03 1277.37 826.42 1277.07 826.85C1276.93 828.61 1278.39 830.67 1281.26 832.33C1285.76 834.92 1291.99 835.53 1295.18 833.69Z" fill="white"/>
<path d="M1269.74 848.38C1270.32 848.04 1270.75 847.65 1271.05 847.22C1271.19 845.46 1269.73 843.39 1266.86 841.74C1262.36 839.14 1256.13 838.54 1252.94 840.38C1252.36 840.72 1251.93 841.11 1251.63 841.54C1251.48 843.29 1252.95 845.36 1255.82 847.02C1260.31 849.61 1266.55 850.22 1269.74 848.38Z" fill="white"/>
<path d="M1235.62 832.11L1267.01 813.99C1267.32 813.81 1267.57 813.61 1267.77 813.4C1267.69 812.82 1267.27 812.25 1266.5 811.8C1264.78 810.81 1262 810.81 1260.29 811.8L1228.91 829.92C1228.6 830.1 1228.34 830.3 1228.15 830.51C1228.23 831.09 1228.65 831.66 1229.42 832.1C1231.12 833.1 1233.91 833.1 1235.62 832.11Z" fill="white"/>
<path d="M200.85 216.39C200.85 216.39 225.71 268.18 286.42 266.38L291.32 279.78C294.9 289.57 290.84 300.44 281.79 305.6C266.83 314.12 241.42 321.65 209.43 304.29L200.85 216.39Z" fill="url(#paint0_linear)"/>
<path d="M169.64 713.42C169.64 713.42 164.77 717.89 163.14 723.57C161.52 729.26 159.9 734.94 166.39 736.16C172.89 737.38 178.98 742.65 183.04 748.34C187.1 754.02 196.72 755.77 207 756.05C215.33 756.28 215.53 750.36 214.72 747.52C213.91 744.68 204.97 737.37 198.47 732.09C191.97 726.81 183.45 713.41 183.45 713.41H169.64V713.42Z" fill="#00AF9B"/>
<path d="M110.22 759.06L105.92 769.56C104.48 773.08 104.12 776.93 104.86 780.65C106.08 786.69 108.15 795.77 110.22 799.66C113.46 805.75 126.45 806.89 131.33 804.9C136.21 802.91 134.11 790.85 131.33 778.14C130.05 772.28 125.24 759.05 125.24 759.05H110.22V759.06Z" fill="#00AF9B"/>
<path d="M110.32 761.56L108.38 737.76H126.84L124.25 762.89C124.24 762.89 116.14 768.33 110.32 761.56Z" fill="url(#paint1_linear)"/>
<path d="M169.58 717.88L167.32 687.77L188.37 689.71L183.52 717.88C183.51 717.88 180.92 721.44 169.58 717.88Z" fill="url(#paint2_linear)"/>
<path d="M215.46 416.15C215.46 416.15 213.89 614.17 189.04 698.47C189.04 698.47 182.04 703.64 165.37 695.53C165.37 695.53 154.14 529.28 148.96 510.29C143.78 491.29 146.11 434.47 146.11 434.47L215.46 416.15Z" fill="#780096"/>
<path d="M102.35 443.57C102.35 443.57 97.36 622.99 96.06 639.18C94.77 655.37 106.44 740.02 106.44 740.02C106.44 740.02 116.79 747.48 128.45 740.87C128.45 740.87 151.16 609.27 155.35 582.12C159.54 554.97 180.53 435.15 180.53 435.15L102.35 443.57Z" fill="#780096"/>
<path d="M122.91 220.27C128.38 216.18 145.86 206.29 154.68 204.81C165.3 203.03 179.42 208.54 189.06 209.86C198.03 217.58 209.15 237.12 206.52 286.64C203.24 348.14 212.58 414.92 212.81 454.45C203.02 456.31 169.32 468.3 159.31 456.53C157.62 410.03 162.9 319.82 157.01 276.65C152.19 241.46 131.64 227.52 122.91 220.27Z" fill="white"/>
<path d="M206.51 286.64C209.15 237.12 198.02 217.58 189.05 209.86C205.76 212.13 215.05 239.76 217.95 253.82C222.54 275.98 221.94 475.06 221.94 475.06C221.94 475.06 219.57 475.48 215.58 476.21C209.29 477.36 203.5 472.21 203.48 465.36C203.33 421.33 203.56 342.08 206.51 286.64Z" fill="url(#paint3_linear)"/>
<path d="M149.22 161.27L139.36 212.67C138.65 216.4 140.55 220.11 143.98 221.74C150.36 224.77 161.2 228.2 172.01 223.77C175.99 222.14 178.49 218.12 178.07 213.84L174.8 180.6L149.22 161.27Z" fill="url(#paint4_linear)"/>
<path d="M156.99 275.81C152.19 240.41 131.63 227.57 122.9 220.27C116.86 222.41 111.78 226.85 107.48 232.52C101.25 240.74 96.7202 251.62 93.5802 262.33C82.7302 289.35 71.7402 328.42 86.3502 351.83C86.8702 401.12 90.7402 462.39 99.9802 493.01C99.9802 493.01 109.01 495.8 112.23 470.72C112.23 470.72 113.52 500.17 138.03 493.11C143.86 491.43 151.66 489.55 160.16 487.66C165.45 486.49 169.16 481.35 168.94 475.53C167 423.46 162.5 316.38 156.99 275.81Z" fill="url(#paint5_linear)"/>
<path d="M177.38 364.05C169.2 361.86 136.22 337.26 123.55 327.65C119.85 324.85 114.67 324.71 111.04 327.59C107.48 330.41 103.95 335.22 103.7 343.23C103.53 348.73 107 353.72 112.2 355.51L165.01 373.74C165.01 373.74 176.49 394.17 194.7 396.76C212.91 399.35 215.74 384.09 212.15 378.25C207.93 371.38 187.56 366.78 177.38 364.05Z" fill="url(#paint6_linear)"/>
<path d="M117.23 322.35C116.66 322.35 116.1 322.02 115.84 321.46C107.58 303.67 119.5 276.07 120.01 274.91C120.35 274.13 121.23 273.78 122.03 274.12C122.8 274.46 123.16 275.37 122.82 276.14C122.7 276.41 110.94 303.63 118.62 320.16C118.98 320.93 118.65 321.84 117.88 322.2C117.66 322.3 117.44 322.35 117.23 322.35Z" fill="url(#paint7_linear)"/>
<path d="M262.99 281.38C262.03 278.66 262.68 275.62 264.61 273.46C273.04 263.95 297.3 235.83 300.69 223.23C304.8 207.94 299.36 199.83 297.6 192.03C295.84 184.23 303.32 187.26 305.25 194.57C307.18 201.88 313.48 191.34 314.81 188.16C316.14 184.98 321.71 168.17 328.49 166.45C335.26 164.73 344.2 179.54 331.96 207.07C331.96 207.07 320.6 219.64 317.1 231.44C312.91 245.53 299.63 275.95 291.61 292.09C288.9 297.55 282.26 299.74 276.83 296.97C271.64 294.33 265.91 289.64 262.99 281.38Z" fill="url(#paint8_linear)"/>
<path d="M191.89 145.86C191.89 145.86 196.76 180.4 190.46 195.33C184.16 210.25 169.97 202.92 152.88 191.65C144.35 186.02 137.5 169.88 137.5 169.88C137.5 169.88 159.02 107.57 191.89 145.86Z" fill="url(#paint9_linear)"/>
<path d="M114.62 133.6L120.91 131.67C122.48 131.19 123.51 129.67 123.37 128.04L122.88 122C122.38 115.87 128.73 111.52 134.26 114.2L135.28 114.7C137.56 115.81 140.23 114.19 140.31 111.65C140.39 108.99 143.28 107.38 145.58 108.73L147.17 109.66C149.25 110.88 151.9 109.68 152.37 107.32L152.98 104.24C153.69 100.71 158.61 100.41 159.74 103.82L160.12 104.97C161.03 107.71 164.67 108.24 166.32 105.87L167.18 104.64C169.13 101.84 173.54 103.2 173.56 106.62V107.34C173.57 110.08 176.59 111.74 178.92 110.29L181.53 108.66C184.22 106.98 187.57 109.44 186.78 112.51L186.48 113.69C185.76 116.48 188.53 118.9 191.2 117.81L195.37 116.1C198.29 114.91 201.17 117.87 199.9 120.76L195.77 130.11C195.06 131.71 196.03 133.14 197.13 134.51C197.37 134.8 197.63 135.92 197.63 135.92C198.75 139.06 198.06 142.57 195.83 145.04C195.83 145.04 194.76 146.87 194.12 146.94C191.46 147.26 188.17 142.89 183.64 149.22C178.85 155.92 165.62 153.78 149.87 156.72C147.94 157.08 146.73 158.29 146.03 160.06C143.95 160.25 141.57 161.2 140.87 164.3C139.18 171.76 146.41 174.94 146.13 177.32C144.33 192.48 141.74 182.42 140.19 179.3C138.6 176.11 132.85 165.71 129.17 162.46C127.53 161.01 125.07 160.47 122.85 160.32C120.44 160.15 118.92 157.68 119.87 155.46L121.73 151.13L113.37 146.76C107.75 143.81 108.52 135.47 114.62 133.6Z" fill="url(#paint10_linear)"/>
<path d="M178.11 371.04C177.77 370.77 181.3 351.17 182.64 343.78C182.91 342.31 184.41 341.43 185.83 341.91L209.64 350C210.76 350.38 211.45 351.52 211.27 352.69L206.76 381.51C206.76 381.5 190.5 380.97 178.11 371.04Z" fill="#00AF9B"/>
<path d="M340.18 1020.8V1036.56C340.29 1073.47 364.56 1110.34 413.03 1138.51C510.6 1195.21 669.26 1195.21 767.46 1138.51C816.88 1109.98 841.57 1072.52 841.46 1035.13V1019.38C841.57 1056.78 816.88 1094.23 767.46 1122.76C669.26 1179.46 510.59 1179.46 413.03 1122.76C364.55 1094.58 340.29 1057.72 340.18 1020.8Z" fill="#C9C9EC"/>
<path d="M340.18 1020.8V1036.56C340.29 1073.47 364.56 1110.34 413.03 1138.51C432.24 1149.67 453.81 1158.64 476.84 1165.41V1149.66C453.82 1142.89 432.24 1133.92 413.03 1122.76C364.55 1094.58 340.29 1057.72 340.18 1020.8Z" fill="#C9C9EC"/>
<path d="M476.83 1149.65V1165.4C510.55 1175.31 547.36 1180.51 584.35 1180.99V1165.23C547.37 1164.76 510.56 1159.56 476.83 1149.65Z" fill="#C9C9EC"/>
<path d="M584.36 1165.24V1181C650.36 1181.86 716.92 1167.69 767.46 1138.51C769.93 1137.08 772.34 1135.64 774.69 1134.17V1118.41C772.34 1119.88 769.93 1121.33 767.46 1122.75C716.92 1151.93 650.36 1166.1 584.36 1165.24Z" fill="#DDDEFA"/>
<path d="M774.689 1118.41V1134.17C800.909 1117.75 819.419 1098.68 830.199 1078.54V1062.78C819.409 1082.92 800.899 1101.99 774.689 1118.41Z" fill="#C9C9EC"/>
<path d="M830.189 1062.78V1078.54C837.739 1064.42 841.499 1049.77 841.459 1035.13V1019.38C841.499 1034.01 837.749 1048.65 830.189 1062.78Z" fill="#C9C9EC"/>
<path d="M414.16 917.44C315.96 974.13 315.47 1066.05 413.03 1122.75C510.6 1179.45 669.26 1179.45 767.46 1122.75C865.66 1066.05 866.2 974.14 768.64 917.44C671.07 860.74 512.36 860.74 414.16 917.44Z" fill="#F1F1F9"/>
<path d="M347.01 989.03L347.25 1019.55C347.35 1055.45 370.94 1091.29 418.08 1118.68C512.94 1173.8 667.21 1173.81 762.68 1118.68C810.73 1090.94 834.74 1054.52 834.64 1018.16L834.4 987.64C834.5 1024 810.5 1060.42 762.45 1088.16C666.97 1143.29 512.7 1143.29 417.84 1088.16C370.71 1060.76 347.11 1024.92 347.01 989.03Z" fill="#780096"/>
<path d="M347.01 989.03L347.25 1019.55C347.35 1055.45 370.94 1091.29 418.08 1118.68C436.76 1129.53 457.74 1138.25 480.12 1144.83L479.88 1114.31C457.5 1107.73 436.52 1099.01 417.84 1088.16C370.71 1060.76 347.11 1024.92 347.01 989.03Z" fill="#780096"/>
<path d="M479.88 1114.31L480.12 1144.83C512.9 1154.47 548.7 1159.52 584.66 1159.99L584.43 1129.47C548.46 1129 512.66 1123.95 479.88 1114.31Z" fill="#780096"/>
<path d="M584.42 1129.46L584.65 1159.98C648.82 1160.82 713.54 1147.05 762.68 1118.67C765.08 1117.28 767.42 1115.88 769.71 1114.45L769.48 1083.93C767.2 1085.36 764.86 1086.76 762.46 1088.15C713.3 1116.53 648.59 1130.3 584.42 1129.46Z" fill="#780096"/>
<path d="M769.47 1083.94L769.7 1114.46C795.2 1098.49 813.19 1079.95 823.67 1060.37L823.43 1029.85C812.96 1049.43 794.96 1067.97 769.47 1083.94Z" fill="#780096"/>
<path d="M823.44 1029.84L823.68 1060.36C831.03 1046.63 834.68 1032.39 834.64 1018.15L834.4 987.63C834.44 1001.87 830.78 1016.12 823.44 1029.84Z" fill="#780096"/>
<path d="M418.94 888.53C323.46 943.66 322.97 1033.03 417.84 1088.15C512.7 1143.28 666.96 1143.28 762.45 1088.15C857.93 1033.02 858.46 943.66 763.59 888.53C668.73 833.41 514.43 833.41 418.94 888.53Z" fill="#780096"/>
<path d="M338.56 982.87V998.63C338.66 1035.54 362.93 1072.41 411.41 1100.58C508.98 1157.28 667.64 1157.28 765.84 1100.58C815.26 1072.05 839.95 1034.59 839.84 997.2V981.44C839.94 1018.84 815.26 1056.29 765.84 1084.82C667.64 1141.52 508.97 1141.52 411.41 1084.82C362.93 1056.65 338.67 1019.79 338.56 982.87Z" fill="#C9C9EC"/>
<path d="M338.56 982.87V998.63C338.66 1035.54 362.93 1072.41 411.41 1100.58C430.62 1111.74 452.2 1120.71 475.21 1127.47V1111.72C452.2 1104.95 430.61 1095.99 411.41 1084.82C362.93 1056.65 338.67 1019.79 338.56 982.87Z" fill="#C9C9EC"/>
<path d="M475.22 1111.72V1127.47C508.94 1137.38 545.75 1142.58 582.75 1143.06V1127.31C545.75 1126.83 508.94 1121.64 475.22 1111.72Z" fill="#C9C9EC"/>
<path d="M582.74 1127.31V1143.06C648.74 1143.92 715.29 1129.76 765.84 1100.58C768.31 1099.15 770.72 1097.71 773.06 1096.24V1080.48C770.71 1081.95 768.31 1083.4 765.84 1084.82C715.29 1114.01 648.74 1128.17 582.74 1127.31Z" fill="#DDDEFA"/>
<path d="M773.06 1080.48V1096.24C799.28 1079.82 817.79 1060.75 828.57 1040.61V1024.86C817.79 1044.99 799.29 1064.06 773.06 1080.48Z" fill="#C9C9EC"/>
<path d="M828.57 1024.85V1040.6C836.12 1026.48 839.88 1011.84 839.84 997.19V981.43C839.89 996.08 836.12 1010.73 828.57 1024.85Z" fill="#C9C9EC"/>
<path d="M412.54 879.51C314.33 936.21 313.84 1028.13 411.41 1084.82C508.98 1141.52 667.64 1141.52 765.84 1084.82C864.04 1028.12 864.58 936.21 767.02 879.51C669.45 822.82 510.75 822.82 412.54 879.51Z" fill="#F1F1F9"/>
<path d="M428.35 1077.86C384.88 1052.6 360.97 1018.72 361.02 982.47C361.06 945.99 385.34 911.9 429.38 886.48C518.07 835.27 661.94 835.27 750.08 886.48C793.54 911.74 817.45 945.61 817.4 981.85C817.35 1018.34 793.06 1052.44 749.02 1077.87C704.67 1103.48 646.55 1116.27 588.49 1116.27C530.41 1116.27 472.41 1103.47 428.35 1077.86ZM434.27 894.96C393.4 918.56 370.87 949.64 370.82 982.48C370.78 1015.08 392.96 1045.95 433.27 1069.38C518.68 1119.01 658.12 1119.01 744.11 1069.38C785 1045.77 807.53 1014.68 807.59 981.83C807.63 949.23 785.46 918.38 745.15 894.95C702.44 870.13 646.23 857.72 589.93 857.72C533.64 857.73 477.27 870.14 434.27 894.96Z" fill="#780096"/>
<g opacity="0.3">
<path opacity="0.14" d="M859.55 485.86C1011.37 573.51 1011.37 715.63 859.55 803.28C707.73 890.93 461.6 890.93 309.78 803.28C157.96 715.62 157.96 573.51 309.78 485.86C461.6 398.2 707.73 398.2 859.55 485.86Z" fill="url(#paint11_linear)"/>
<path opacity="0.14" d="M859.55 485.86C707.73 398.21 461.6 398.21 309.77 485.86C157.96 573.51 157.96 715.63 309.77 803.28C461.59 890.93 707.73 890.93 859.54 803.28C1011.37 715.62 1011.37 573.5 859.55 485.86ZM856.67 801.61C706.44 888.34 462.89 888.34 312.66 801.61C162.44 714.88 162.44 574.24 312.66 487.51C462.89 400.77 706.45 400.77 856.67 487.51C1006.89 574.25 1006.89 714.88 856.67 801.61Z" fill="url(#paint12_linear)"/>
</g>
<g opacity="0.3">
<path opacity="0.15" d="M818.6 55.95C947.79 130.54 947.79 251.49 818.6 326.08C689.4 400.67 479.94 400.67 350.74 326.08C221.54 251.49 221.54 130.54 350.74 55.95C479.93 -18.65 689.4 -18.65 818.6 55.95Z" fill="url(#paint13_linear)"/>
<path opacity="0.14" d="M818.6 55.95C689.4 -18.64 479.94 -18.64 350.74 55.95C221.55 130.54 221.55 251.49 350.74 326.08C479.93 400.67 689.4 400.67 818.6 326.08C947.79 251.48 947.79 130.54 818.6 55.95ZM816.15 324.66C688.31 398.47 481.04 398.47 353.19 324.66C225.34 250.85 225.34 131.18 353.19 57.36C481.03 -16.45 688.3 -16.45 816.15 57.36C943.98 131.17 943.98 250.84 816.15 324.66Z" fill="url(#paint14_linear)"/>
</g>
<path opacity="0.3" d="M460.15 70.66V221.01C434.27 231.4 409.57 243.26 386.48 256.6C329.35 289.58 287.8 328.13 261.88 369.2V218.86C287.8 177.74 329.35 139.19 386.48 106.22C409.57 92.87 434.27 81.01 460.15 70.66Z" fill="#FF0082"/>
<path opacity="0.3" d="M746.32 822.09V671.74C772.2 665.41 796.9 657.42 819.99 647.7C877.12 623.67 936.89 581.13 962.82 544.11V694.46C936.9 731.52 877.13 774.07 820 798.09C796.9 807.82 772.2 815.81 746.32 822.09Z" fill="#FF0082"/>
<path opacity="0.3" d="M899.46 195.07V289.88C884.52 258.17 855.47 228.22 812.31 203.32C802.09 197.41 791.36 191.98 780.23 186.98V92.13C791.36 97.13 802.09 102.57 812.31 108.48C855.47 133.4 884.52 163.36 899.46 195.07Z" fill="#FF0082"/>
<path d="M862.13 392.17C862.13 392.17 902.88 376.33 913.48 330.9C928.87 264.95 851.85 257.29 821.66 216.19C791.48 175.09 739.97 83.08 653.07 115.05C547.79 153.77 475.79 117.13 455.41 299.44C438.2 453.37 657.74 538.52 657.74 538.52L862.13 392.17Z" fill="url(#paint15_linear)"/>
<path d="M684.97 488.24C684.97 489.9 678.54 651.75 669.69 693.23C617.17 709.26 547.6 638.33 540.42 622.85C533.22 607.37 596.95 429.17 599.16 410.93C601.37 392.68 684.97 488.24 684.97 488.24Z" fill="url(#paint16_linear)"/>
<path d="M845.46 369.71C845.46 369.71 836.01 399.41 814.58 455.83C778.84 549.98 728.16 580.47 710.3 589.17C692.44 597.86 640.52 595.8 589.27 510.3C538.03 424.77 606.43 383.93 608.19 378.66C608.81 376.74 617.54 358.89 628.36 337.02C652.98 287.22 714.99 268.36 762.6 297.02C800.47 319.81 827.46 343.73 845.46 369.71Z" fill="url(#paint17_linear)"/>
<path d="M623.18 376.65C623.18 376.65 527.02 476.18 623.18 614.4C719.34 752.62 725.87 857.75 608.18 950.8C490.47 1043.84 272.04 863.51 326.66 664.73C381.27 465.95 449.17 486.56 422.21 343.09C396.57 206.59 528.17 86.56 640.63 154.66C753.09 222.73 623.18 376.65 623.18 376.65Z" fill="url(#paint18_linear)"/>
<path d="M867.31 343.67C867.31 343.67 877.11 379.27 851.18 372.49C825.28 365.72 788.1 313.9 738.86 332.05C689.6 350.22 656.12 309.18 643.9 365.65C631.68 422.13 612.09 432.48 593.08 448.3C574.07 464.12 582.11 523.15 558.41 467.99C534.72 412.83 515.95 391.65 556.34 356.47C596.73 321.3 631.05 308.09 657.6 280.33C684.15 252.57 710.59 248.71 727.85 252.64C745.14 256.55 830.68 300.41 837.35 305.61C844.02 310.82 867.31 343.67 867.31 343.67Z" fill="url(#paint19_linear)"/>
<path opacity="0.3" d="M1075.46 141.02L137.97 143.79L362.72 1005.93C362.72 1005.93 402.69 1110.98 598.92 1110.98C795.15 1110.98 816.69 1005.93 816.69 1005.93L1075.46 141.02Z" fill="url(#paint20_linear)"/>
<path d="M766.78 704.37C764.77 704.94 763.44 706.86 763.65 708.95L763.63 755.87C763.77 757.84 769.14 761.86 771.24 761.09C846.39 733.5 902.55 702.07 951.39 667.89C954.28 665.86 955.92 662.48 955.67 658.96L956.16 613.84C956.04 612.19 951.26 608.57 949.01 610.53C905.83 648.09 850.58 680.67 766.78 704.37Z" fill="url(#paint21_linear)"/>
<path d="M770.73 706.88C768.72 707.45 767.39 709.37 767.6 711.46L767.58 758.38C767.72 760.35 769.7 761.65 771.57 761C830.82 740.35 880.08 717.41 922.13 692L929.02 705.74L932.33 685.7C940.28 680.68 944.66 676.87 952.11 671.66C954.98 669.65 956.56 666.27 956.31 662.78L956.29 614.4C956.17 612.75 954.22 611.95 952.97 613.04C909.91 650.76 854.52 683.18 770.73 706.88Z" fill="#00AF9B"/>
<path d="M785.04 721.72C784.32 721.77 783.64 721.29 783.47 720.56C783.28 719.75 783.78 718.95 784.59 718.76C785.43 718.57 869.87 693.85 942.64 639.68C943.3 639.19 944.24 639.32 944.74 639.99C945.24 640.66 945.1 641.59 944.43 642.09C871.18 696.63 786.11 721.49 785.27 721.69C785.2 721.71 785.12 721.72 785.04 721.72Z" fill="white"/>
<path d="M786.31 739.63C785.59 739.68 784.91 739.2 784.74 738.47C784.55 737.66 785.05 736.86 785.86 736.67C786.7 736.48 871.14 711.76 943.91 657.59C944.57 657.1 945.51 657.23 946.01 657.9C946.51 658.57 946.37 659.5 945.7 660C872.45 714.54 787.38 739.4 786.54 739.6C786.47 739.62 786.39 739.63 786.31 739.63Z" fill="white"/>
<path d="M1075.31 1255.99C1075.31 1255.99 1078.2 1263.6 1079.09 1266.43C1079.65 1268.17 1079.1 1273.03 1078.61 1276.52C1078.28 1278.85 1076.64 1280.78 1074.39 1281.5C1070.36 1282.78 1065.97 1282.3 1062.31 1280.19L1028.84 1260.9C1027.07 1259.88 1026.35 1257.69 1027.18 1255.82L1027.92 1254.13C1029.1 1251.49 1031.92 1249.98 1034.77 1250.5C1042.13 1251.81 1055.77 1253.91 1060.44 1252.34C1066.96 1250.16 1075.31 1255.99 1075.31 1255.99Z" fill="#780096"/>
<path d="M1076.51 1230.85C1076.51 1230.85 1076.41 1253.76 1075.54 1256.95C1074.66 1260.17 1064.24 1260.05 1061.45 1253.17C1059.08 1247.33 1057.78 1228.29 1057.78 1228.29L1076.51 1230.85Z" fill="url(#paint22_linear)"/>
<path d="M1030 1265.93C1030 1265.93 1033.55 1274.12 1034.67 1277.19C1035.35 1279.07 1035 1284.41 1034.62 1288.26C1034.37 1290.83 1032.68 1293.02 1030.25 1293.92C1025.9 1295.51 1021.07 1295.21 1016.96 1293.07L979.37 1273.59C977.39 1272.56 976.49 1270.17 977.31 1268.09L978.05 1266.22C979.22 1263.25 982.22 1261.47 985.38 1261.89C993.49 1262.97 1008.52 1264.6 1013.56 1262.67C1020.58 1259.96 1030 1265.93 1030 1265.93Z" fill="#780096"/>
<path d="M1028.75 1245.47C1028.75 1245.47 1030.54 1268.3 1029.93 1271.58C1029.32 1274.85 1018.93 1275.59 1015.58 1268.95C1012.74 1263.32 1009.89 1244.46 1009.89 1244.46L1028.75 1245.47Z" fill="url(#paint23_linear)"/>
<path d="M1095.06 1000.56C1095.06 1000.56 1077.17 1091.54 1080.93 1115.27C1088.07 1160.27 1079.25 1230.85 1079.25 1230.85C1071.19 1235.86 1062.77 1235.83 1056.13 1230.85C1056.13 1230.85 1045.7 1080.84 1027.05 1049V998.5L1051.89 971.38L1095.84 954.08C1098.67 961.5 1096.57 991.78 1095.06 1000.56Z" fill="url(#paint24_linear)"/>
<path d="M972.96 991.24C972.96 991.24 977.23 1052.54 986.13 1114.18C994.51 1172.19 1007.49 1230.19 1009.35 1247.22C1009.62 1249.77 1011 1252.04 1013.13 1253.45C1015.95 1255.35 1020.51 1257.15 1026.84 1255.85C1029.23 1255.35 1031 1253.29 1031.24 1250.87C1033.18 1231.95 1034.19 1145.67 1034.13 1130.09C1034.06 1112.5 1049.16 1008.8 1049.16 1008.8L1044.24 966.67L972.96 991.24Z" fill="url(#paint25_linear)"/>
<path d="M1033.15 703.52L1036.47 735.71C1036.72 738.21 1038.66 740.22 1041.13 740.64C1052.44 742.55 1061.04 738.62 1066.17 735.07C1069.63 732.7 1071.15 728.35 1070.13 724.28L1064.19 700.55L1033.15 703.52Z" fill="url(#paint26_linear)"/>
<path d="M1016.73 651.11C1016.73 651.11 1010.51 691.65 1014.59 702.37C1018.65 713.09 1044.14 717.99 1050.67 714.81C1057.21 711.62 1076.46 689.53 1077.49 679.79C1083.42 623.35 1048.38 622.23 1016.73 651.11Z" fill="url(#paint27_linear)"/>
<path d="M944.86 880.29C926.47 866.44 902.1 881.37 901.96 904.34C901.95 906.54 903.98 908.39 906.02 907.7C906.39 907.58 906.75 907.37 907.09 907.06C909.91 904.49 913.83 895.82 920.29 894.5C927.91 892.94 932.21 895.55 941.39 890.95L944.86 880.29Z" fill="url(#paint28_linear)"/>
<path d="M972.05 818.09C963.42 806.41 948.63 795.23 939.1 781.15C930.3 768.15 924.55 754.19 918.41 740.7C912.31 739.62 899.43 736.31 897.29 729.48C895.02 722.22 902.65 715.57 900.7 708.53C899.32 703.58 892.41 703.41 893.95 696.75C916 703.84 929.91 722.89 943.14 741.98C947.05 747.63 951.33 753.6 956.03 759.1C965.27 769.92 971.95 782.76 974.77 796.7C976.61 805.87 976.76 814.63 972.05 818.09Z" fill="url(#paint29_linear)"/>
<path d="M941.51 729.69C939.84 727.72 935.82 724.07 933.75 723.9C932.94 723.83 932.82 724.32 932.59 727.31C932.08 733.79 922.58 746.03 922.57 752.9C922.52 776.06 954.54 817.83 977.89 827.21C998.62 835.53 1048.25 807.95 1057.73 801.33C1067.21 794.71 1076.83 772.29 1055.79 764.37C1034.75 756.45 993.99 786.82 987.88 786.49C974.78 785.77 953.2 743.4 941.51 729.69Z" fill="url(#paint30_linear)"/>
<path d="M1032.19 740.43C1025.52 763.23 1006 770.84 985.02 803.26C968.86 828.23 978.88 860.13 980.61 901.66C982.32 942.7 968.57 964.12 972.13 994.34C972.62 998.51 976.6 1002.33 992.77 1008.39C1008.94 1014.45 1082.74 998.69 1095.15 979.66C1107.56 960.63 1082.92 920.43 1084.82 906.74C1093.23 846.19 1088.15 748.23 1072.99 735.09C1068.95 731.59 1072.3 721.93 1065.17 723.88C1044.76 729.46 1051.65 725.79 1035.01 724.88C1029.86 724.61 1033.12 737.25 1032.19 740.43Z" fill="url(#paint31_linear)"/>
<path d="M950.85 873.77C950.85 873.77 938.53 872.54 935.41 884.34C932.29 896.15 935.41 900.03 935.41 900.03C935.41 900.03 1004.44 915.37 1024.12 899.68C1041.59 885.76 1069.3 794.97 1068.22 783.45C1067.14 771.94 1052.39 752.51 1035.12 766.9C1017.85 781.29 1011.34 842.06 994.75 860.02C985.84 869.68 950.85 873.77 950.85 873.77Z" fill="url(#paint32_linear)"/>
<path d="M1036.96 765.5C1052.4 765.26 1063.34 782.24 1067.19 796.44C1073.39 819.36 1071.1 839.64 1065.92 862.55C1063.64 872.66 1060.91 884.63 1056.54 889.84C1046.02 902.4 1034.7 886.45 1032.25 889.61C1028.19 894.85 1027.23 894.53 1030.21 896.17C1037.85 900.38 1051.8 910.7 1062.82 895.23C1069.8 885.44 1071.19 879.58 1074.72 867.86C1081.62 844.9 1082.64 815.91 1078.03 792.36C1075.32 778.49 1062.24 748.39 1043.29 760.04C1041.28 761.27 1039.19 762.19 1036.96 765.5Z" fill="#FF0082"/>
<path d="M1078.56 800.25C1092.22 801.44 1107.45 796.43 1118.96 804.06C1133.03 813.39 1130.68 837.68 1127.47 853.67C1123.91 871.37 1119.24 904.78 1093.39 897.25C1082.05 893.95 1072.23 885.62 1071.64 873.59C1070.69 854.28 1074.52 834.94 1077.08 815.95C1078.25 807.25 1075.85 799.45 1085.46 796.92C1090.28 795.65 1099.26 797.27 1103.36 799.75C1106.99 799.31 1111.79 800.12 1115.26 802.07C1124.84 807.46 1124.74 818.98 1118.6 827.91" fill="#FF0082"/>
<path d="M1020.08 641.68C1016.97 655.72 1020.84 666 1031.73 673.59C1042.83 681.32 1051.7 695.51 1051.79 707.92C1051.91 723.07 1030.75 735.53 1032.84 750.8C1033.78 757.71 1037 759.06 1042.2 760.75C1047.91 762.61 1052.81 765.89 1056.25 771.1C1062.71 780.89 1065.43 788.14 1078.53 789.26C1091.85 790.39 1106.9 779.96 1108.11 766.08C1108.48 761.87 1105.53 757.75 1106.54 753.63C1107.68 749.02 1112.75 745.56 1115.94 742.38C1125.16 733.2 1138.65 714.45 1130.62 701.19C1127.71 696.4 1122.65 693.37 1119.28 688.91C1115.61 684.05 1113.97 679.25 1112.94 673.25C1110.73 660.4 1111.33 647.68 1100.12 639.09C1096.08 636 1092.65 634.17 1089.46 630.27C1085.99 626.03 1082.07 622.84 1077.02 620.3C1068.88 616.2 1057.43 614.36 1048.48 614.86C1036.54 615.53 1021.33 621.08 1013 629.77C1004.84 638.29 1004.99 650.15 1012.08 651.33C1014.58 651.74 1018.42 649.79 1019.16 652.41C1020.79 658.21 1024.02 661.82 1029.56 666.52" fill="#780096"/>
<path d="M66.4799 1108.56C110.09 1083.39 181.03 1083.39 224.63 1108.57C268.24 1133.75 268.25 1174.71 224.64 1199.88C181.03 1225.06 110.08 1225.06 66.4699 1199.87C22.8799 1174.7 22.8699 1133.73 66.4799 1108.56Z" fill="#009983"/>
<path d="M66.4698 1197.33C110.08 1222.51 181.02 1222.52 224.64 1197.34C245.54 1185.27 256.4 1169.57 257.27 1153.72L257.35 1153.77L257.4 1131.86L252.74 1135.87C247.63 1125.87 238.28 1116.44 224.63 1108.56C181.03 1083.39 110.09 1083.38 66.4798 1108.56C53.4098 1116.11 44.2698 1125.07 39.0298 1134.61C36.0298 1133.4 33.8298 1132.52 33.8298 1132.52L33.7798 1154.17C33.7798 1154.17 33.8198 1154.14 33.8698 1154.11C34.8898 1169.82 45.7398 1185.36 66.4698 1197.33Z" fill="url(#paint33_linear)"/>
<path d="M66.5297 1086.32C110.13 1061.15 181.08 1061.16 224.68 1086.33C268.29 1111.5 268.3 1152.47 224.7 1177.63C181.08 1202.81 110.14 1202.8 66.5197 1177.63C22.9297 1152.47 22.9197 1111.51 66.5297 1086.32Z" fill="#6CC56B"/>
<path d="M224.7 1174.71C245.88 1162.47 256.77 1146.52 257.37 1130.46C256.73 1114.43 245.83 1098.53 224.69 1086.33C181.09 1061.16 110.14 1061.15 66.5399 1086.32C45.3499 1098.56 34.4599 1114.52 33.8599 1130.59C34.5199 1146.59 45.4099 1162.5 66.5399 1174.7C110.14 1199.89 181.09 1199.89 224.7 1174.71Z" fill="url(#paint34_linear)"/>
<path d="M195.21 1149.95C176.7 1160.64 149.65 1165.15 121.02 1162.32C118.97 1162.11 117.17 1161.46 115.96 1160.49C114.74 1159.5 114.29 1158.3 114.63 1157.11C114.91 1156.18 115.66 1155.34 116.81 1154.69C118.61 1153.65 121.17 1153.18 123.66 1153.43C147.23 1155.75 169.28 1152.17 184.16 1143.57C199.04 1134.98 205.26 1122.25 201.22 1108.65C200.8 1107.21 201.61 1105.73 203.4 1104.7C204.54 1104.03 206 1103.59 207.6 1103.44C209.65 1103.24 211.72 1103.51 213.43 1104.21C215.14 1104.91 216.27 1105.94 216.62 1107.12C221.54 1123.64 213.73 1139.25 195.21 1149.95Z" fill="#6CC56B"/>
<path d="M104.04 1118.38C113.79 1124 116.07 1131.8 109.15 1135.81C102.24 1139.8 88.7301 1138.47 78.9801 1132.85C69.2401 1127.22 66.9401 1119.42 73.8601 1115.43C80.7801 1111.42 94.3001 1112.75 104.04 1118.38Z" fill="#6CC56B"/>
<path d="M159.18 1086.55C168.92 1092.17 171.21 1099.97 164.3 1103.96C157.37 1107.96 143.87 1106.64 134.12 1101.01C124.38 1095.38 122.08 1087.58 129.01 1083.59C135.92 1079.59 149.43 1080.92 159.18 1086.55Z" fill="#6CC56B"/>
<path d="M215.46 1110.13C215.11 1108.95 213.98 1107.91 212.27 1107.21C210.56 1106.52 208.49 1106.24 206.44 1106.44C204.84 1106.59 203.38 1107.03 202.24 1107.7C201.84 1107.92 201.51 1108.18 201.2 1108.44C201.22 1108.52 201.22 1108.59 201.24 1108.66C203.23 1115.34 202.71 1121.82 199.93 1127.71C197.52 1134.98 191.77 1141.51 182.99 1146.57C168.11 1155.17 146.06 1158.75 122.49 1156.43C120 1156.18 117.44 1156.66 115.64 1157.69C115.23 1157.92 114.9 1158.18 114.59 1158.46C114.75 1159.18 115.22 1159.88 115.98 1160.48C117.18 1161.47 118.98 1162.13 121.03 1162.33C149.66 1165.16 176.71 1160.66 195.22 1149.97C204.97 1144.34 211.74 1137.35 215.26 1129.57C217.34 1123.44 217.46 1116.87 215.46 1110.13Z" fill="white"/>
<path d="M72.6597 1118.2C71.4597 1118.89 70.5597 1119.71 69.9097 1120.59C69.4797 1124.43 72.6497 1128.98 78.9597 1132.63C88.7097 1138.26 102.22 1139.59 109.14 1135.59C110.33 1134.9 111.23 1134.09 111.89 1133.2C112.31 1129.36 109.15 1124.79 102.83 1121.15C93.0897 1115.52 79.5897 1114.21 72.6597 1118.2Z" fill="white"/>
<path d="M127.79 1086.37C126.6 1087.06 125.69 1087.87 125.04 1088.76C124.62 1092.6 127.78 1097.15 134.1 1100.8C143.84 1106.43 157.36 1107.75 164.28 1103.75C165.47 1103.06 166.37 1102.25 167.03 1101.37C167.45 1097.52 164.29 1092.97 157.98 1089.32C148.22 1083.71 134.72 1082.38 127.79 1086.37Z" fill="white"/>
<path d="M970.41 454.58C987.35 444.8 1014.91 444.8 1031.85 454.58C1048.79 464.36 1048.79 480.27 1031.86 490.05C1014.92 499.83 987.36 499.83 970.42 490.05C953.47 480.27 953.47 464.36 970.41 454.58Z" fill="#BB1900"/>
<path d="M970.4 489.06C987.34 498.84 1014.9 498.84 1031.85 489.06C1039.97 484.37 1044.19 478.27 1044.53 472.12L1044.56 472.15L1044.58 463.63L1042.77 465.19C1040.79 461.3 1037.15 457.64 1031.85 454.58C1014.91 444.8 987.35 444.8 970.42 454.58C965.34 457.51 961.79 460.99 959.76 464.7C958.59 464.23 957.74 463.89 957.74 463.89L957.72 472.3C957.72 472.3 957.73 472.3 957.75 472.28C958.13 478.38 962.35 484.41 970.4 489.06Z" fill="url(#paint35_linear)"/>
<path d="M970.43 445.94C987.37 436.16 1014.93 436.16 1031.86 445.94C1048.8 455.72 1048.8 471.63 1031.87 481.41C1014.93 491.19 987.37 491.19 970.43 481.41C953.49 471.63 953.49 455.73 970.43 445.94Z" fill="#FD6666"/>
<path d="M1031.87 480.27C1040.1 475.52 1044.33 469.32 1044.56 463.08C1044.3 456.86 1040.08 450.68 1031.86 445.94C1014.92 436.16 987.36 436.16 970.43 445.94C962.2 450.69 957.97 456.89 957.73 463.14C957.99 469.36 962.21 475.54 970.42 480.28C987.37 490.05 1014.93 490.05 1031.87 480.27Z" fill="url(#paint36_linear)"/>
<path d="M1001.59 461.23C1008.31 457.35 1018.13 455.71 1028.52 456.74C1029.26 456.82 1029.92 457.05 1030.36 457.41C1030.8 457.77 1030.97 458.2 1030.84 458.63C1030.74 458.97 1030.47 459.27 1030.05 459.51C1029.39 459.89 1028.47 460.06 1027.56 459.97C1019.01 459.12 1011 460.43 1005.6 463.55C1000.2 466.67 997.94 471.29 999.41 476.22C999.57 476.75 999.27 477.28 998.62 477.65C998.2 477.89 997.68 478.05 997.1 478.1C996.35 478.18 995.6 478.08 994.98 477.83C994.36 477.58 993.95 477.2 993.82 476.77C992.03 470.77 994.87 465.11 1001.59 461.23Z" fill="#FD7070"/>
<path d="M982.75 457.09C986.54 459.28 987.43 462.31 984.74 463.86C982.05 465.41 976.8 464.9 973.02 462.71C969.23 460.53 968.34 457.49 971.03 455.94C973.71 454.39 978.96 454.91 982.75 457.09Z" fill="#FD7070"/>
<path d="M1004.17 444.73C1007.95 446.92 1008.84 449.95 1006.16 451.5C1003.47 453.05 998.22 452.54 994.44 450.35C990.65 448.17 989.77 445.13 992.45 443.58C995.13 442.03 1000.38 442.54 1004.17 444.73Z" fill="#FD7070"/>
<path d="M1001.59 461.23C997.95 463.33 995.46 465.95 994.21 468.87C993.56 471.01 993.56 473.27 994.24 475.59C994.37 476.02 994.78 476.4 995.4 476.65C996.02 476.9 996.77 477 997.52 476.92C998.1 476.87 998.63 476.71 999.05 476.47C999.19 476.39 999.3 476.31 999.41 476.21C998.72 473.9 998.87 471.65 999.76 469.6C1000.56 466.79 1002.69 464.29 1006.04 462.35C1011.44 459.24 1019.44 457.93 1028 458.78C1028.91 458.87 1029.83 458.7 1030.49 458.32C1030.63 458.24 1030.74 458.15 1030.84 458.06C1030.77 457.83 1030.62 457.6 1030.37 457.39C1029.93 457.03 1029.28 456.8 1028.53 456.72C1018.12 455.71 1008.31 457.35 1001.59 461.23Z" fill="white"/>
<path d="M971.02 455.95C970.53 456.23 970.17 456.56 969.91 456.93C969.79 458.41 971.02 460.15 973.44 461.54C977.23 463.73 982.48 464.24 985.16 462.69C985.65 462.41 986.01 462.08 986.27 461.71C986.39 460.23 985.16 458.49 982.75 457.09C978.96 454.91 973.71 454.39 971.02 455.95Z" fill="white"/>
<path d="M992.44 443.58C991.96 443.86 991.59 444.2 991.33 444.56C991.21 446.04 992.44 447.78 994.86 449.18C998.64 451.37 1003.9 451.88 1006.58 450.33C1007.07 450.05 1007.44 449.72 1007.69 449.35C1007.81 447.88 1006.58 446.13 1004.16 444.74C1000.38 442.54 995.13 442.03 992.44 443.58Z" fill="white"/>
<path fill-rule="evenodd" clip-rule="evenodd" d="M64.4998 102.59C65.3398 103.04 65.8998 103.77 66.1798 104.79C66.3498 105.31 66.4398 105.91 66.4398 106.6C66.4398 108.41 65.7898 110.39 64.4998 112.55C63.2898 114.62 61.8298 116.08 60.0998 116.95C58.5498 117.9 57.1698 118.03 55.9598 117.34C54.8398 116.65 54.2798 115.4 54.2798 113.59C54.2798 112.91 54.3498 112.22 54.4698 111.52C54.7198 110.21 55.2198 108.88 55.9598 107.51C57.1698 105.44 58.5498 103.93 60.0998 102.99C61.8298 102.03 63.2898 101.9 64.4998 102.59Z" fill="white"/>
<path fill-rule="evenodd" clip-rule="evenodd" d="M86.6698 92.96C86.7998 93.46 86.8598 94.04 86.8598 94.7C86.8598 96.51 86.2598 98.45 85.0498 100.52C83.9298 102.59 82.5098 104.14 80.7798 105.17C79.0598 106.12 77.5898 106.25 76.3798 105.56C75.1798 104.87 74.5698 103.58 74.5698 101.68C74.5698 101.07 74.6298 100.44 74.7598 99.8C75.0198 98.49 75.5598 97.13 76.3798 95.73C77.5898 93.58 79.0498 92.07 80.7798 91.21C82.4998 90.18 83.9298 90.01 85.0498 90.7C85.8598 91.16 86.3998 91.91 86.6698 92.96Z" fill="white"/>
<path fill-rule="evenodd" clip-rule="evenodd" d="M39.6801 114.74C41.4001 113.79 42.9101 113.66 44.2001 114.35C44.9401 114.81 45.4401 115.54 45.6901 116.55C45.8201 117.09 45.8801 117.69 45.8801 118.36C45.8801 120.26 45.3201 122.24 44.2001 124.31C42.9101 126.38 41.4001 127.88 39.6801 128.83C38.0401 129.86 36.6201 130.03 35.4101 129.34C34.2001 128.56 33.6001 127.27 33.6001 125.46C33.6001 124.78 33.6701 124.09 33.7901 123.39C34.0801 122.07 34.6201 120.74 35.4101 119.38C36.6201 117.33 38.0501 115.78 39.6801 114.74Z" fill="white"/>
<path fill-rule="evenodd" clip-rule="evenodd" d="M2.07 141.76C0.69 139.7 0 136.99 0 133.61V133.48C0 128.05 1.77 122.36 5.3 116.42C8.49 110.82 12.5 106.64 17.32 103.88L74.97 70.6L103.67 53.99C107.37 51.75 110.6 51.06 113.36 51.92C114.14 52.01 114.91 52.26 115.69 52.7C116.47 53.04 117.11 53.52 117.63 54.12L123.58 57.35C122.29 57 120.95 56.96 119.57 57.22C117.59 57.48 115.52 58.25 113.37 59.55L27.02 109.31C22.19 112.16 18.19 116.38 15 121.98C11.84 127.3 10.1 132.4 9.77 137.3C9.73 137.89 9.7 138.47 9.7 139.04V139.17C9.7 141.84 10.13 144.08 10.99 145.89C11.68 147.44 12.71 148.73 14.09 149.77L5.82 144.99C5.56 144.9 5.39 144.82 5.3 144.73C3.96 143.98 2.88 142.99 2.07 141.76Z" fill="#EA0080"/>
<path fill-rule="evenodd" clip-rule="evenodd" d="M31.4102 146.41L34.3802 144.73L48.0802 159.47L38.3902 154.04L31.4102 146.41Z" fill="#EA0080"/>
<path fill-rule="evenodd" clip-rule="evenodd" d="M48.0799 159.47L34.3799 144.73L31.4099 146.41L27.0099 149C22.7899 151.41 19.1699 152.01 16.1499 150.81C15.7199 150.64 15.3299 150.46 14.9899 150.29C14.6499 150.03 14.3399 149.86 14.0799 149.77C12.6999 148.73 11.6699 147.44 10.9799 145.89C10.1199 144.08 9.68994 141.84 9.68994 139.17V139.04C9.68994 138.47 9.70994 137.89 9.75994 137.3C10.0899 132.41 11.8399 127.3 14.9899 121.98C18.1799 116.38 22.1899 112.16 27.0099 109.31L113.36 59.55C115.51 58.26 117.58 57.48 119.56 57.22C120.94 56.96 122.27 57 123.57 57.35C124.09 57.61 124.73 57.91 125.51 58.25C125.94 58.6 126.37 58.94 126.8 59.29C129.21 61.36 130.42 64.72 130.42 69.37V69.5C130.42 74.93 128.78 80.62 125.51 86.56C122.15 92.16 118.1 96.34 113.36 99.1L61.0099 129.48L48.0799 159.47Z" fill="#FF0082"/>
<path fill-rule="evenodd" clip-rule="evenodd" d="M86.6698 92.96C86.3998 91.91 85.8598 91.16 85.0498 90.7C83.9298 90.01 82.5098 90.18 80.7798 91.21C79.0598 92.07 77.5898 93.58 76.3798 95.73C75.5598 97.13 75.0198 98.49 74.7598 99.8C74.6298 100.44 74.5698 101.06 74.5698 101.68C74.5698 103.58 75.1698 104.87 76.3798 105.56C77.5898 106.25 79.0498 106.12 80.7798 105.17C82.4998 104.13 83.9298 102.58 85.0498 100.52C86.2598 98.45 86.8598 96.51 86.8598 94.7C86.8598 94.05 86.7998 93.47 86.6698 92.96Z" fill="white"/>
<path fill-rule="evenodd" clip-rule="evenodd" d="M64.4998 102.59C63.2898 101.9 61.8298 102.03 60.0998 102.98C58.5498 103.93 57.1698 105.43 55.9598 107.5C55.2198 108.86 54.7298 110.2 54.4698 111.51C54.3398 112.21 54.2798 112.9 54.2798 113.58C54.2798 115.39 54.8398 116.64 55.9598 117.33C57.1698 118.02 58.5498 117.89 60.0998 116.94C61.8198 116.08 63.2898 114.61 64.4998 112.54C65.7898 110.39 66.4398 108.4 66.4398 106.59C66.4398 105.9 66.3498 105.3 66.1798 104.78C65.8998 103.77 65.3398 103.04 64.4998 102.59Z" fill="white"/>
<path fill-rule="evenodd" clip-rule="evenodd" d="M39.6801 114.74C38.0401 115.77 36.6201 117.33 35.4101 119.39C34.6201 120.75 34.0801 122.08 33.7901 123.4C33.6601 124.09 33.6001 124.78 33.6001 125.47C33.6001 127.28 34.2001 128.57 35.4101 129.35C36.6201 130.04 38.0401 129.87 39.6801 128.84C41.4001 127.89 42.9101 126.38 44.2001 124.32C45.3201 122.25 45.8801 120.27 45.8801 118.37C45.8801 117.7 45.8201 117.1 45.6901 116.56C45.4401 115.55 44.9501 114.82 44.2001 114.36C42.9101 113.67 41.4101 113.79 39.6801 114.74Z" fill="white"/>
<path d="M818.79 1270.19C789.14 1287.87 742.32 1287.22 714.22 1268.74C686.11 1250.25 687.36 1220.93 717.01 1203.25C746.66 1185.57 793.48 1186.21 821.59 1204.7C849.69 1223.18 848.44 1252.51 818.79 1270.19Z" fill="#FF0082"/>
<path d="M693.33 1250.9C692.7 1262.85 699.39 1274.91 713.56 1284.23C741.67 1302.72 788.49 1303.37 818.13 1285.68C833.6 1276.45 841.26 1264.07 841.14 1251.7H841.21L841.77 1238.43C841.01 1250.05 833.34 1261.53 818.8 1270.2C789.15 1287.88 742.33 1287.23 714.23 1268.75C700.19 1259.51 693.48 1247.58 693.97 1235.74L693.33 1250.9ZM693.96 1235.66C693.96 1235.57 693.98 1235.49 693.99 1235.41H693.97L693.96 1235.66ZM841.86 1236.2H841.8C841.8 1236.49 841.84 1236.78 841.83 1237.07L841.86 1236.2Z" fill="#EA0080"/>
<path d="M728.19 1213.78C717.31 1220.27 711.41 1228.78 710.44 1237.46C710.66 1246.16 715.83 1254.83 726.15 1261.62C748.01 1275.99 784.43 1276.5 807.49 1262.75C818.37 1256.26 824.27 1247.75 825.23 1239.06C825.01 1230.36 819.84 1221.69 809.52 1214.91C787.66 1200.54 751.25 1200.03 728.19 1213.78Z" fill="white"/>
<path d="M710.44 1237.47C711.41 1228.79 717.3 1220.28 728.19 1213.79C751.25 1200.04 787.66 1200.54 809.52 1214.92C819.84 1221.71 825.01 1230.37 825.23 1239.07C826.31 1229.35 821.2 1219.41 809.66 1211.82C787.8 1197.44 751.38 1196.93 728.32 1210.69C716.15 1217.95 710.19 1227.73 710.44 1237.47Z" fill="#EA0080"/>
<path d="M792.94 1254.73L768.73 1239.49L768.18 1210.07C768.15 1208.2 766.8 1207.36 765.18 1208.18C763.56 1209.01 762.28 1211.18 762.31 1213.05L762.89 1243.88C762.9 1244.32 762.98 1244.72 763.14 1245.06C763.3 1245.39 763.52 1245.66 763.8 1245.84L788.89 1261.63C790.06 1262.36 791.92 1261.42 793.04 1259.52C794.15 1257.6 794.11 1255.46 792.94 1254.73Z" fill="url(#paint37_linear)"/>
</g>
<defs>
<linearGradient id="paint0_linear" x1="292.62" y1="265.583" x2="200.847" y2="265.583" gradientUnits="userSpaceOnUse">
<stop stop-color="#FF5C00"/>
<stop offset="1" stop-color="#FF0082"/>
</linearGradient>
<linearGradient id="paint1_linear" x1="126.833" y1="751.36" x2="108.371" y2="751.36" gradientUnits="userSpaceOnUse">
<stop stop-color="#FBD860"/>
<stop offset="1" stop-color="#F79D53"/>
</linearGradient>
<linearGradient id="paint2_linear" x1="188.364" y1="703.61" x2="167.318" y2="703.61" gradientUnits="userSpaceOnUse">
<stop stop-color="#FBD860"/>
<stop offset="1" stop-color="#F79D53"/>
</linearGradient>
<linearGradient id="paint3_linear" x1="221.973" y1="343.12" x2="189.056" y2="343.12" gradientUnits="userSpaceOnUse">
<stop stop-color="#FF5C00"/>
<stop offset="1" stop-color="#FF0082"/>
</linearGradient>
<linearGradient id="paint4_linear" x1="178.11" y1="193.58" x2="139.209" y2="193.58" gradientUnits="userSpaceOnUse">
<stop stop-color="#FBD860"/>
<stop offset="1" stop-color="#F79D53"/>
</linearGradient>
<linearGradient id="paint5_linear" x1="168.951" y1="357.233" x2="79.3225" y2="357.233" gradientUnits="userSpaceOnUse">
<stop stop-color="#FF5C00"/>
<stop offset="1" stop-color="#FF0082"/>
</linearGradient>
<linearGradient id="paint6_linear" x1="213.512" y1="361.275" x2="103.703" y2="361.275" gradientUnits="userSpaceOnUse">
<stop stop-color="#FBD860"/>
<stop offset="1" stop-color="#F79D53"/>
</linearGradient>
<linearGradient id="paint7_linear" x1="117.937" y1="322.346" x2="117.937" y2="241.555" gradientUnits="userSpaceOnUse">
<stop stop-color="#FF5C00"/>
<stop offset="1" stop-color="#FF0082"/>
</linearGradient>
<linearGradient id="paint8_linear" x1="338.03" y1="232.236" x2="262.552" y2="232.236" gradientUnits="userSpaceOnUse">
<stop stop-color="#FBD860"/>
<stop offset="1" stop-color="#F79D53"/>
</linearGradient>
<linearGradient id="paint9_linear" x1="193.689" y1="168.571" x2="137.493" y2="168.571" gradientUnits="userSpaceOnUse">
<stop stop-color="#FBD860"/>
<stop offset="1" stop-color="#F79D53"/>
</linearGradient>
<linearGradient id="paint10_linear" x1="200.229" y1="143.452" x2="109.574" y2="143.452" gradientUnits="userSpaceOnUse">
<stop stop-color="#00AF9B"/>
<stop offset="1" stop-color="#00D769"/>
</linearGradient>
<linearGradient id="paint11_linear" x1="584.664" y1="860.162" x2="584.664" y2="347.874" gradientUnits="userSpaceOnUse">
<stop stop-color="#FF5C00"/>
<stop offset="1" stop-color="#FF0082"/>
</linearGradient>
<linearGradient id="paint12_linear" x1="584.664" y1="855.047" x2="584.664" y2="371.475" gradientUnits="userSpaceOnUse">
<stop stop-color="#FF5C00"/>
<stop offset="1" stop-color="#FF0082"/>
</linearGradient>
<linearGradient id="paint13_linear" x1="584.664" y1="374.483" x2="584.664" y2="-61.4788" gradientUnits="userSpaceOnUse">
<stop stop-color="#FF5C00"/>
<stop offset="1" stop-color="#FF0082"/>
</linearGradient>
<linearGradient id="paint14_linear" x1="584.664" y1="370.13" x2="584.664" y2="-41.3943" gradientUnits="userSpaceOnUse">
<stop stop-color="#E95B11"/>
<stop offset="0.9983" stop-color="#E51077"/>
<stop offset="1" stop-color="#E51077"/>
</linearGradient>
<linearGradient id="paint15_linear" x1="876.219" y1="50.2043" x2="180.028" y2="901.105" gradientUnits="userSpaceOnUse">
<stop stop-color="#FF0082"/>
<stop offset="1" stop-color="#780096"/>
</linearGradient>
<linearGradient id="paint16_linear" x1="431.827" y1="872.682" x2="665.088" y2="503.16" gradientUnits="userSpaceOnUse">
<stop offset="0.2157" stop-color="#AB4904"/>
<stop offset="0.3857" stop-color="#A64704"/>
<stop offset="0.5779" stop-color="#994105"/>
<stop offset="0.7809" stop-color="#823707"/>
<stop offset="0.9902" stop-color="#632A09"/>
<stop offset="1" stop-color="#612909"/>
</linearGradient>
<linearGradient id="paint17_linear" x1="795.923" y1="773.285" x2="649.555" y2="178.473" gradientUnits="userSpaceOnUse">
<stop stop-color="#AB4904"/>
<stop offset="0.2168" stop-color="#A64704"/>
<stop offset="0.4619" stop-color="#994105"/>
<stop offset="0.7207" stop-color="#823707"/>
<stop offset="0.9875" stop-color="#632A09"/>
<stop offset="1" stop-color="#612909"/>
</linearGradient>
<linearGradient id="paint18_linear" x1="382.387" y1="555.489" x2="740.865" y2="555.489" gradientUnits="userSpaceOnUse">
<stop offset="0.00598834" stop-color="#780096"/>
<stop offset="0.1417" stop-color="#810095"/>
<stop offset="0.3674" stop-color="#9B0091"/>
<stop offset="0.6554" stop-color="#C4008B"/>
<stop offset="0.9913" stop-color="#FD0082"/>
<stop offset="1" stop-color="#FF0082"/>
</linearGradient>
<linearGradient id="paint19_linear" x1="532.738" y1="371.207" x2="869.124" y2="371.207" gradientUnits="userSpaceOnUse">
<stop stop-color="#780096"/>
<stop offset="1" stop-color="#FF0082"/>
</linearGradient>
<linearGradient id="paint20_linear" x1="606.715" y1="1117.8" x2="606.715" y2="-5.968" gradientUnits="userSpaceOnUse">
<stop stop-color="#FF5C00"/>
<stop offset="0.3366" stop-color="#FF0082"/>
<stop offset="0.6814" stop-color="#FF0082" stop-opacity="0.0432"/>
<stop offset="0.8473" stop-color="#FF0082" stop-opacity="0"/>
</linearGradient>
<linearGradient id="paint21_linear" x1="864.81" y1="754.539" x2="855.057" y2="616.742" gradientUnits="userSpaceOnUse">
<stop stop-color="#CAE6FF"/>
<stop offset="1" stop-color="white"/>
</linearGradient>
<linearGradient id="paint22_linear" x1="1076.51" y1="1243.64" x2="1057.79" y2="1243.64" gradientUnits="userSpaceOnUse">
<stop stop-color="#F6813E"/>
<stop offset="0.5659" stop-color="#B54400"/>
</linearGradient>
<linearGradient id="paint23_linear" x1="1029.8" y1="1258.23" x2="1011.15" y2="1259.76" gradientUnits="userSpaceOnUse">
<stop stop-color="#F6813E"/>
<stop offset="0.5659" stop-color="#B54400"/>
</linearGradient>
<linearGradient id="paint24_linear" x1="1027.05" y1="1094.33" x2="1097.24" y2="1094.33" gradientUnits="userSpaceOnUse">
<stop stop-color="#780096"/>
<stop offset="1" stop-color="#FF0082"/>
</linearGradient>
<linearGradient id="paint25_linear" x1="972.961" y1="1111.48" x2="1049.16" y2="1111.48" gradientUnits="userSpaceOnUse">
<stop stop-color="#780096"/>
<stop offset="1" stop-color="#FF0082"/>
</linearGradient>
<linearGradient id="paint26_linear" x1="1084.82" y1="659.338" x2="981.213" y2="838.799" gradientUnits="userSpaceOnUse">
<stop offset="0.4341" stop-color="#B54400"/>
<stop offset="1" stop-color="#F6813E"/>
</linearGradient>
<linearGradient id="paint27_linear" x1="1076.53" y1="782.937" x2="1015.23" y2="574.075" gradientUnits="userSpaceOnUse">
<stop stop-color="#F6813E"/>
<stop offset="0.5659" stop-color="#B54400"/>
</linearGradient>
<linearGradient id="paint28_linear" x1="944.862" y1="891.404" x2="894.685" y2="891.404" gradientUnits="userSpaceOnUse">
<stop offset="0.3188" stop-color="#B54400"/>
<stop offset="1" stop-color="#F6813E"/>
</linearGradient>
<linearGradient id="paint29_linear" x1="968.532" y1="788.872" x2="868.74" y2="689.09" gradientUnits="userSpaceOnUse">
<stop offset="0.4341" stop-color="#B54400"/>
<stop offset="1" stop-color="#F6813E"/>
</linearGradient>
<linearGradient id="paint30_linear" x1="922.573" y1="776.327" x2="1068.38" y2="776.327" gradientUnits="userSpaceOnUse">
<stop stop-color="#00D769"/>
<stop offset="1" stop-color="#00AF9B"/>
</linearGradient>
<linearGradient id="paint31_linear" x1="971.551" y1="866.679" x2="1098.67" y2="866.679" gradientUnits="userSpaceOnUse">
<stop stop-color="#00AF9B"/>
<stop offset="1" stop-color="#00D769"/>
</linearGradient>
<linearGradient id="paint32_linear" x1="934.023" y1="834.279" x2="1068.25" y2="834.279" gradientUnits="userSpaceOnUse">
<stop stop-color="#00D769"/>
<stop offset="1" stop-color="#00AF9B"/>
</linearGradient>
<linearGradient id="paint33_linear" x1="182.305" y1="1084.12" x2="104.285" y2="1219.18" gradientUnits="userSpaceOnUse">
<stop stop-color="#90C585"/>
<stop offset="0.5254" stop-color="#169D91"/>
</linearGradient>
<linearGradient id="paint34_linear" x1="184.668" y1="1063.23" x2="106.822" y2="1197.99" gradientUnits="userSpaceOnUse">
<stop stop-color="#00AF9B"/>
<stop offset="1" stop-color="#00D769"/>
</linearGradient>
<linearGradient id="paint35_linear" x1="1015.51" y1="445.106" x2="985.202" y2="497.574" gradientUnits="userSpaceOnUse">
<stop offset="0.3623" stop-color="#E51077"/>
<stop offset="1" stop-color="#E95B11"/>
</linearGradient>
<linearGradient id="paint36_linear" x1="1016.43" y1="436.99" x2="986.188" y2="489.343" gradientUnits="userSpaceOnUse">
<stop stop-color="#FF5C00"/>
<stop offset="1" stop-color="#FF0082"/>
</linearGradient>
<linearGradient id="paint37_linear" x1="788.701" y1="1263.33" x2="757.804" y2="1208.91" gradientUnits="userSpaceOnUse">
<stop stop-color="#FF5C00"/>
<stop offset="1" stop-color="#FF0082"/>
</linearGradient>
<clipPath id="clip0">
<rect width="1315.63" height="1298.53" fill="white"/>
</clipPath>
</defs>
</svg>
